<svg width="272" height="63" viewBox="0 0 272 63" fill="none" xmlns="http://www.w3.org/2000/svg">
<path d="M177.374 32.7843C174.938 32.7843 172.671 32.3893 170.583 31.5899C168.495 30.7904 166.68 29.6524 165.147 28.1852C163.614 26.7085 162.419 24.978 161.554 22.9935C160.698 21.009 160.266 18.8269 160.266 16.4474C160.266 14.0679 160.698 11.8859 161.554 9.90135C162.41 7.91684 163.614 6.18627 165.166 4.70965C166.718 3.23302 168.533 2.09499 170.602 1.30495C172.68 0.496095 174.947 0.101074 177.421 0.101074C180.158 0.101074 182.631 0.571337 184.851 1.52127C187.061 2.4712 188.923 3.86318 190.428 5.6972L185.735 10.033C184.653 8.80094 183.45 7.86982 182.123 7.25847C180.797 6.63773 179.358 6.33676 177.788 6.33676C176.311 6.33676 174.957 6.5813 173.724 7.06096C172.492 7.54063 171.42 8.23662 170.517 9.13952C169.614 10.0424 168.918 11.1146 168.42 12.3467C167.921 13.5788 167.677 14.952 167.677 16.4568C167.677 17.9617 167.921 19.3348 168.42 20.5669C168.918 21.799 169.614 22.8712 170.517 23.7741C171.42 24.677 172.492 25.373 173.724 25.8527C174.957 26.3323 176.311 26.5769 177.788 26.5769C179.349 26.5769 180.797 26.2665 182.123 25.6552C183.45 25.0344 184.653 24.0939 185.735 22.8336L190.428 27.1694C188.923 29.0034 187.061 30.4048 184.851 31.3641C182.631 32.3047 180.148 32.7843 177.374 32.7843Z" fill="white"/>
<path d="M210.734 32.2481V4.93528L212.408 6.60942H200.67V0.646484H228.077V6.60942H216.339L217.966 4.93528V32.2481H210.734Z" fill="white"/>
<path d="M66.2226 0.646484H42.3427V6.51536H66.2226V0.646484Z" fill="white"/>
<path d="M66.2226 13.2871H42.3427V19.156H66.2226V13.2871Z" fill="white"/>
<path d="M66.2226 26.3794H42.3427V32.2483H66.2226V26.3794Z" fill="white"/>
<path d="M147.192 0.646484H123.312V6.51536H147.192V0.646484Z" fill="white"/>
<path d="M147.192 13.2871H123.312V19.156H147.192V13.2871Z" fill="white"/>
<path d="M147.192 26.3794H123.312V32.2483H147.192V26.3794Z" fill="white"/>
<path d="M259.218 19.9177L259.124 19.6826L259.218 19.9177Z" fill="white"/>
<path d="M255.654 4.34275L254.215 7.82269L259.124 19.6827L259.218 19.9179H261.795L263.78 25.4764H261.522L264.325 32.2481H272L257.873 0.646484H251.233L252.766 4.34275H255.654Z" fill="white"/>
<path d="M261.795 19.918H259.218L261.522 25.4765H263.78L261.795 19.918Z" fill="white"/>
<path d="M255.653 4.34277H252.766L254.214 7.82272L255.653 4.34277Z" fill="white"/>
<path d="M245.543 19.918L243.605 25.4765H246.869L249.183 19.918H245.543Z" fill="white"/>
<path d="M259.218 19.918H249.183L246.869 25.4765H261.523L259.218 19.918Z" fill="white"/>
<path d="M245.543 19.918H242.053L236.561 32.2483H244.057L246.869 25.4765H243.605L245.543 19.918Z" fill="white"/>
<path d="M254.215 7.82275L259.124 19.6828L254.215 7.82275Z" fill="white"/>
<path d="M24.764 15.3562C22.7607 13.7573 19.8545 12.9673 16.0266 12.9673H7.27026H0V32.2481H14.992C19.055 32.2481 22.1964 31.3734 24.4254 29.6334C26.6545 27.884 27.7643 25.4481 27.7643 22.3161C27.7643 19.2688 26.7674 16.9551 24.764 15.3562ZM18.8669 25.7208C17.87 26.4544 16.4404 26.8306 14.5781 26.8306H7.27026V18.3471H14.5876C18.4437 18.3471 20.3624 19.7297 20.3624 22.5042C20.3624 23.9056 19.8639 24.9872 18.8669 25.7208Z" fill="white"/>
<path d="M16.779 6.46834H25.5071V0.646484H0V6.46834H7.27026H16.779Z" fill="white"/>
<path d="M89.068 21.0466V20.2378L88.6824 20.6328L89.068 21.0466Z" fill="white"/>
<path d="M89.0678 3.12939L85.823 6.59993H89.0678V3.12939Z" fill="white"/>
<path d="M88.6822 20.6329L89.0678 20.2379V17.5762H85.823L88.6822 20.6329Z" fill="white"/>
<path d="M107.493 5.96986C106.383 4.2581 104.803 2.94137 102.752 2.01965C100.702 1.09794 98.2661 0.646484 95.4352 0.646484H81.7599V6.60942H85.823L89.0772 3.12947V6.60942H90.0271H95.0401C97.2974 6.60942 98.9809 7.08908 100.1 8.05783C101.21 9.01716 101.774 10.3715 101.774 12.1209C101.774 13.8327 101.219 15.1776 100.1 16.1369C98.9903 17.0963 97.2974 17.5854 95.0401 17.5854H90.0271H89.0678V20.247V21.0559V23.5389H95.4352C98.2661 23.5389 100.702 23.078 102.752 22.1657C104.803 21.244 106.383 19.9273 107.493 18.2155C108.603 16.5037 109.167 14.4722 109.167 12.1209C109.157 9.73196 108.603 7.68162 107.493 5.96986Z" fill="white"/>
<path d="M88.6822 20.6328L85.823 23.5296H89.0678V21.0466L88.6822 20.6328Z" fill="white"/>
<path d="M88.6822 20.6329L85.823 17.5762H81.7599V32.2484H89.0678V23.5297H85.823L88.6822 20.6329Z" fill="white"/>
<path d="M1.7136 60.021V50.501H2.2984L6.7184 58.1306H6.4056L10.812 50.501H11.3832L11.3968 60.021H10.7168L10.7032 51.5482H10.8936L6.7184 58.7562H6.3784L2.1896 51.5482H2.3936V60.021H1.7136ZM13.367 60.021L17.7462 50.501H18.4398L22.819 60.021H22.071L17.9366 50.9362H18.2358L14.115 60.021H13.367ZM14.9718 57.3418L15.203 56.757H20.9014L21.1326 57.3418H14.9718ZM28.7436 60.089C28.0364 60.089 27.3791 59.9711 26.7716 59.7354C26.1732 59.4906 25.6519 59.1506 25.2076 58.7154C24.7633 58.2802 24.4188 57.7725 24.174 57.1922C23.9292 56.6029 23.8068 55.9591 23.8068 55.261C23.8068 54.5629 23.9292 53.9237 24.174 53.3434C24.4188 52.7541 24.7633 52.2418 25.2076 51.8066C25.6609 51.3714 26.1868 51.0359 26.7852 50.8002C27.3836 50.5554 28.0364 50.433 28.7436 50.433C29.4145 50.433 30.0401 50.5418 30.6204 50.7594C31.2097 50.977 31.7129 51.3079 32.13 51.7522L31.6948 52.201C31.2868 51.8021 30.8335 51.5165 30.3348 51.3442C29.8452 51.1629 29.3239 51.0722 28.7708 51.0722C28.1633 51.0722 27.5967 51.1765 27.0708 51.385C26.554 51.5935 26.1007 51.8882 25.7108 52.269C25.33 52.6498 25.0308 53.0941 24.8132 53.6018C24.6047 54.1095 24.5004 54.6626 24.5004 55.261C24.5004 55.8594 24.6047 56.4125 24.8132 56.9202C25.0308 57.4279 25.33 57.8722 25.7108 58.253C26.1007 58.6338 26.554 58.9285 27.0708 59.137C27.5967 59.3455 28.1633 59.4498 28.7708 59.4498C29.3239 59.4498 29.8452 59.3637 30.3348 59.1914C30.8335 59.0101 31.2868 58.7154 31.6948 58.3074L32.13 58.7562C31.7129 59.2005 31.2097 59.5359 30.6204 59.7626C30.0401 59.9802 29.4145 60.089 28.7436 60.089ZM36.1023 60.021V50.909L36.3063 51.1266H32.6751V50.501H40.2231V51.1266H36.5919L36.7959 50.909V60.021H36.1023ZM42.6873 54.8802H47.8417V55.4922H42.6873V54.8802ZM42.7689 59.3954H48.6441V60.021H42.0753V50.501H48.4401V51.1266H42.7689V59.3954ZM50.9605 60.021V50.501H54.3741C55.1719 50.501 55.8565 50.6279 56.4277 50.8818C56.9989 51.1357 57.4386 51.5029 57.7469 51.9834C58.0551 52.4549 58.2093 53.0306 58.2093 53.7106C58.2093 54.3725 58.0551 54.9437 57.7469 55.4242C57.4386 55.9047 56.9989 56.2719 56.4277 56.5258C55.8565 56.7797 55.1719 56.9066 54.3741 56.9066H51.3413L51.6541 56.5802V60.021H50.9605ZM51.6541 56.621L51.3413 56.281H54.3741C55.3986 56.281 56.1738 56.0589 56.6997 55.6146C57.2346 55.1613 57.5021 54.5266 57.5021 53.7106C57.5021 52.8855 57.2346 52.2509 56.6997 51.8066C56.1738 51.3533 55.3986 51.1266 54.3741 51.1266H51.3413L51.6541 50.7866V56.621ZM64.6428 60.089C63.9356 60.089 63.2783 59.9711 62.6708 59.7354C62.0724 59.4906 61.5511 59.1506 61.1068 58.7154C60.6626 58.2802 60.318 57.7725 60.0732 57.1922C59.8284 56.6029 59.706 55.9591 59.706 55.261C59.706 54.5629 59.8284 53.9237 60.0732 53.3434C60.318 52.7541 60.6626 52.2418 61.1068 51.8066C61.5602 51.3714 62.086 51.0359 62.6844 50.8002C63.2828 50.5554 63.9356 50.433 64.6428 50.433C65.3138 50.433 65.9394 50.5418 66.5196 50.7594C67.109 50.977 67.6122 51.3079 68.0292 51.7522L67.594 52.201C67.186 51.8021 66.7327 51.5165 66.234 51.3442C65.7444 51.1629 65.2231 51.0722 64.67 51.0722C64.0626 51.0722 63.4959 51.1765 62.97 51.385C62.4532 51.5935 61.9999 51.8882 61.61 52.269C61.2292 52.6498 60.93 53.0941 60.7124 53.6018C60.5039 54.1095 60.3996 54.6626 60.3996 55.261C60.3996 55.8594 60.5039 56.4125 60.7124 56.9202C60.93 57.4279 61.2292 57.8722 61.61 58.253C61.9999 58.6338 62.4532 58.9285 62.97 59.137C63.4959 59.3455 64.0626 59.4498 64.67 59.4498C65.2231 59.4498 65.7444 59.3637 66.234 59.1914C66.7327 59.0101 67.186 58.7154 67.594 58.3074L68.0292 58.7562C67.6122 59.2005 67.109 59.5359 66.5196 59.7626C65.9394 59.9802 65.3138 60.089 64.6428 60.089ZM76.881 60.021L73.0322 55.2338L73.617 54.8938L77.697 60.021H76.881ZM70.2714 60.021V50.501H70.965V60.021H70.2714ZM70.7338 55.5058V54.8802H73.6306V55.5058H70.7338ZM73.6578 55.329L73.0186 55.193L76.677 50.501H77.4522L73.6578 55.329ZM77.8475 60.021L82.2267 50.501H82.9203L87.2995 60.021H86.5515L82.4171 50.9362H82.7163L78.5955 60.021H77.8475ZM79.4523 57.3418L79.6835 56.757H85.3819L85.6131 57.3418H79.4523ZM94.6863 60.021V56.825L94.9039 57.029H91.6535C90.9191 57.029 90.2844 56.9021 89.7495 56.6482C89.2236 56.3943 88.8202 56.0271 88.5391 55.5466C88.2671 55.0661 88.1311 54.4903 88.1311 53.8194C88.1311 53.1031 88.2807 52.5002 88.5799 52.0106C88.8882 51.5119 89.3143 51.1357 89.8583 50.8818C90.4114 50.6279 91.0551 50.501 91.7895 50.501H95.3799V60.021H94.6863ZM88.1311 60.021L90.4567 56.689H91.1911L88.8791 60.021H88.1311ZM94.6863 56.6482V50.909L94.9039 51.1266H91.8439C90.8919 51.1266 90.153 51.3533 89.6271 51.8066C89.1012 52.2599 88.8383 52.9263 88.8383 53.8058C88.8383 54.6399 89.0786 55.2882 89.5591 55.7506C90.0487 56.2039 90.7695 56.4306 91.7215 56.4306H94.9039L94.6863 56.6482ZM102.306 60.021V50.501H110.139V60.021H109.446V50.909L109.65 51.1266H102.795L102.999 50.909V60.021H102.306ZM117.648 60.089C116.941 60.089 116.284 59.9711 115.676 59.7354C115.078 59.4906 114.552 59.1506 114.099 58.7154C113.654 58.2711 113.31 57.7589 113.065 57.1786C112.82 56.5893 112.698 55.9501 112.698 55.261C112.698 54.5719 112.82 53.9373 113.065 53.357C113.31 52.7677 113.654 52.2554 114.099 51.8202C114.552 51.3759 115.078 51.0359 115.676 50.8002C116.284 50.5554 116.941 50.433 117.648 50.433C118.355 50.433 119.008 50.5554 119.607 50.8002C120.214 51.0359 120.74 51.3714 121.184 51.8066C121.629 52.2418 121.973 52.7541 122.218 53.3434C122.472 53.9237 122.599 54.5629 122.599 55.261C122.599 55.9591 122.472 56.6029 122.218 57.1922C121.973 57.7725 121.629 58.2802 121.184 58.7154C120.74 59.1506 120.214 59.4906 119.607 59.7354C119.008 59.9711 118.355 60.089 117.648 60.089ZM117.648 59.4498C118.256 59.4498 118.818 59.3455 119.335 59.137C119.851 58.9285 120.3 58.6338 120.681 58.253C121.062 57.8722 121.357 57.4279 121.565 56.9202C121.783 56.4125 121.891 55.8594 121.891 55.261C121.891 54.6535 121.783 54.1005 121.565 53.6018C121.357 53.0941 121.062 52.6498 120.681 52.269C120.3 51.8882 119.851 51.5935 119.335 51.385C118.818 51.1765 118.256 51.0722 117.648 51.0722C117.041 51.0722 116.479 51.1765 115.962 51.385C115.445 51.5935 114.992 51.8882 114.602 52.269C114.221 52.6498 113.922 53.0941 113.704 53.6018C113.496 54.1005 113.391 54.6535 113.391 55.261C113.391 55.8594 113.496 56.4125 113.704 56.9202C113.922 57.4279 114.221 57.8722 114.602 58.253C114.992 58.6338 115.445 58.9285 115.962 59.137C116.479 59.3455 117.041 59.4498 117.648 59.4498ZM134.966 59.681V51.1266H130.097L130.016 53.6834C129.989 54.4359 129.943 55.1567 129.88 55.8458C129.816 56.5349 129.721 57.1559 129.594 57.709C129.467 58.253 129.29 58.6927 129.064 59.0282C128.846 59.3637 128.57 59.545 128.234 59.5722L127.432 59.3954C127.813 59.4226 128.121 59.2911 128.357 59.001C128.601 58.7109 128.792 58.2983 128.928 57.7634C129.073 57.2285 129.177 56.6074 129.241 55.9002C129.304 55.193 129.349 54.4359 129.377 53.629L129.472 50.501H135.66V59.681H134.966ZM127.078 62.197L127.092 59.3954H137.129V62.197H136.462V60.021H127.758L127.745 62.197H127.078ZM139.959 54.8802H145.114V55.4922H139.959V54.8802ZM140.041 59.3954H145.916V60.021H139.347V50.501H145.712V51.1266H140.041V59.3954ZM148.232 60.021V50.501H151.646C152.444 50.501 153.128 50.6279 153.7 50.8818C154.271 51.1357 154.711 51.5029 155.019 51.9834C155.327 52.4549 155.481 53.0306 155.481 53.7106C155.481 54.3725 155.327 54.9437 155.019 55.4242C154.711 55.9047 154.271 56.2719 153.7 56.5258C153.128 56.7797 152.444 56.9066 151.646 56.9066H148.613L148.926 56.5802V60.021H148.232ZM148.926 56.621L148.613 56.281H151.646C152.671 56.281 153.446 56.0589 153.972 55.6146C154.507 55.1613 154.774 54.5266 154.774 53.7106C154.774 52.8855 154.507 52.2509 153.972 51.8066C153.446 51.3533 152.671 51.1266 151.646 51.1266H148.613L148.926 50.7866V56.621ZM158.314 54.8802H163.468V55.4922H158.314V54.8802ZM158.395 59.3954H164.271V60.021H157.702V50.501H164.067V51.1266H158.395V59.3954ZM166.587 60.021V50.501H170.422C171.401 50.501 172.172 50.705 172.734 51.113C173.305 51.521 173.591 52.1239 173.591 52.9218C173.591 53.7106 173.315 54.3045 172.761 54.7034C172.217 55.1023 171.506 55.3018 170.626 55.3018L170.857 55.0298C171.918 55.0298 172.721 55.2383 173.265 55.6554C173.809 56.0725 174.081 56.6845 174.081 57.4914C174.081 58.2983 173.8 58.9239 173.237 59.3682C172.675 59.8034 171.823 60.021 170.681 60.021H166.587ZM167.281 59.4362H170.694C171.574 59.4362 172.24 59.2775 172.693 58.9602C173.156 58.6338 173.387 58.1306 173.387 57.4506C173.387 56.7615 173.156 56.2629 172.693 55.9546C172.24 55.6373 171.574 55.4786 170.694 55.4786H167.281V59.4362ZM167.281 54.9074H170.409C171.197 54.9074 171.805 54.7487 172.231 54.4314C172.666 54.105 172.884 53.629 172.884 53.0034C172.884 52.3687 172.666 51.8927 172.231 51.5754C171.805 51.249 171.197 51.0858 170.409 51.0858H167.281V54.9074ZM176.369 59.3138C176.813 59.4861 177.244 59.5269 177.661 59.4362C178.078 59.3365 178.472 58.9965 178.844 58.4162L179.306 57.6954L179.388 57.5866L183.141 50.501H183.862L179.469 58.5794C179.197 59.0962 178.876 59.477 178.504 59.7218C178.141 59.9666 177.756 60.0935 177.348 60.1026C176.949 60.1207 176.55 60.0482 176.151 59.885L176.369 59.3138ZM179.347 58.253L175.267 50.501H176.029L179.741 57.641L179.347 58.253ZM189.271 60.021V50.501H189.965V58.8514L196.452 50.501H197.064V60.021H196.371V51.6842L189.883 60.021H189.271ZM203.987 60.021V50.501H204.572L208.992 58.1306H208.679L213.085 50.501H213.657L213.67 60.021H212.99L212.977 51.5482H213.167L208.992 58.7562H208.652L204.463 51.5482H204.667V60.021H203.987ZM217.708 54.8802H222.862V55.4922H217.708V54.8802ZM217.789 59.3954H223.664V60.021H217.096V50.501H223.46V51.1266H217.789V59.3954ZM227.83 60.021V50.909L228.034 51.1266H224.403V50.501H231.951V51.1266H228.32L228.524 50.909V60.021H227.83ZM231.87 60.021L236.249 50.501H236.943L241.322 60.021H240.574L236.44 50.9362H236.739L232.618 60.021H231.87ZM233.475 57.3418L233.706 56.757H239.405L239.636 57.3418H233.475ZM242.388 60.089C242.28 60.089 242.171 60.0799 242.062 60.0618C241.962 60.0527 241.844 60.0346 241.708 60.0074L241.79 59.3682C241.944 59.4045 242.094 59.4226 242.239 59.4226C242.656 59.4226 242.991 59.2594 243.245 58.933C243.508 58.6066 243.708 58.0943 243.844 57.3962C243.98 56.689 244.07 55.7687 244.116 54.6354L244.252 50.501H250.494V60.021H249.8V50.909L250.004 51.1266H244.687L244.891 50.909L244.755 54.6218C244.719 55.5829 244.651 56.4079 244.551 57.097C244.451 57.777 244.306 58.3391 244.116 58.7834C243.934 59.2277 243.699 59.5586 243.408 59.7762C243.127 59.9847 242.787 60.089 242.388 60.089ZM252.841 60.089C252.732 60.089 252.623 60.0799 252.514 60.0618C252.415 60.0527 252.297 60.0346 252.161 60.0074L252.242 59.3682C252.396 59.4045 252.546 59.4226 252.691 59.4226C253.108 59.4226 253.444 59.2594 253.697 58.933C253.96 58.6066 254.16 58.0943 254.296 57.3962C254.432 56.689 254.523 55.7687 254.568 54.6354L254.704 50.501H260.946V60.021H260.253V50.909L260.457 51.1266H255.139L255.343 50.909L255.207 54.6218C255.171 55.5829 255.103 56.4079 255.003 57.097C254.903 57.777 254.758 58.3391 254.568 58.7834C254.387 59.2277 254.151 59.5586 253.861 59.7762C253.58 59.9847 253.24 60.089 252.841 60.089ZM264.091 59.3138C264.536 59.4861 264.966 59.5269 265.383 59.4362C265.8 59.3365 266.195 58.9965 266.566 58.4162L267.029 57.6954L267.111 57.5866L270.864 50.501H271.585L267.192 58.5794C266.92 59.0962 266.598 59.477 266.227 59.7218C265.864 59.9666 265.479 60.0935 265.07 60.1026C264.672 60.1207 264.273 60.0482 263.874 59.885L264.091 59.3138ZM267.07 58.253L262.99 50.501H263.751L267.464 57.641L267.07 58.253Z" fill="white"/>
</svg>
