<svg width="71" height="71" viewBox="0 0 71 71" fill="none" xmlns="http://www.w3.org/2000/svg">
<g clip-path="url(#clip0_567_1335)">
<path d="M69.2765 54.2977H61.994C61.725 54.2977 61.467 54.1908 61.2768 54.0006C61.0865 53.8104 60.9797 53.5524 60.9797 53.2834C60.9797 53.0144 61.0865 52.7564 61.2768 52.5662C61.467 52.376 61.725 52.2691 61.994 52.2691H68.9723V47.1876H7.10084V51.8837C7.10215 51.9855 7.14318 52.0828 7.21518 52.1548C7.28718 52.2268 7.38445 52.2678 7.48627 52.2691H13.4401C13.7091 52.2691 13.9671 52.376 14.1573 52.5662C14.3475 52.7564 14.4544 53.0144 14.4544 53.2834C14.4544 53.5524 14.3475 53.8104 14.1573 54.0006C13.9671 54.1908 13.7091 54.2977 13.4401 54.2977H7.48627C6.8462 54.2972 6.2325 54.0427 5.7799 53.5901C5.32731 53.1375 5.0728 52.5238 5.07227 51.8837V46.1733C5.07227 45.9043 5.17913 45.6463 5.36934 45.4561C5.55956 45.2659 5.81755 45.159 6.08655 45.159H69.2765C69.735 45.1609 70.1741 45.3445 70.4973 45.6697C70.8206 45.9948 71.0016 46.4349 71.0008 46.8934V52.5734C71.0008 53.0307 70.8192 53.4693 70.4958 53.7927C70.1724 54.116 69.7339 54.2977 69.2765 54.2977V54.2977Z" fill="#98E342"/>
<path d="M51.6081 54.2977H23.8268C23.5578 54.2977 23.2998 54.1908 23.1096 54.0006C22.9194 53.8104 22.8125 53.5524 22.8125 53.2834C22.8125 53.0144 22.9194 52.7564 23.1096 52.5662C23.2998 52.376 23.5578 52.2691 23.8268 52.2691H51.6081C51.8771 52.2691 52.1351 52.376 52.3253 52.5662C52.5155 52.7564 52.6224 53.0144 52.6224 53.2834C52.6224 53.5524 52.5155 53.8104 52.3253 54.0006C52.1351 54.1908 51.8771 54.2977 51.6081 54.2977Z" fill="#98E342"/>
<path d="M67.1672 47.1927H44.8722C44.6032 47.1927 44.3452 47.0858 44.155 46.8956C43.9648 46.7054 43.8579 46.4474 43.8579 46.1784V20.2238C43.8579 19.9548 43.9648 19.6968 44.155 19.5066C44.3452 19.3164 44.6032 19.2095 44.8722 19.2095H60.4293C60.5998 19.2096 60.7675 19.2527 60.917 19.3348C61.0664 19.4169 61.1928 19.5353 61.2843 19.6791L68.0222 30.2703C68.1265 30.4325 68.1817 30.6212 68.1815 30.814V46.1784C68.1815 46.4474 68.0746 46.7054 67.8844 46.8956C67.6942 47.0858 67.4362 47.1927 67.1672 47.1927V47.1927ZM45.8865 45.1641H66.1529V31.1112L59.8725 21.2401H45.8865V45.1641Z" fill="#98E342"/>
<path d="M62.0947 37.209H49.9425C49.6735 37.209 49.4155 37.1022 49.2253 36.912C49.0351 36.7217 48.9282 36.4638 48.9282 36.1947V25.2952C48.9282 25.0262 49.0351 24.7682 49.2253 24.578C49.4155 24.3878 49.6735 24.2809 49.9425 24.2809H57.644C57.8145 24.281 57.9822 24.3241 58.1317 24.4062C58.2811 24.4883 58.4075 24.6067 58.499 24.7506L62.9497 31.7491C63.0539 31.9113 63.1092 32.1 63.1089 32.2928V36.1978C63.1081 36.4663 63.0009 36.7235 62.8108 36.913C62.6207 37.1026 62.3631 37.209 62.0947 37.209V37.209ZM50.9568 35.1805H61.0804V32.5849L57.0871 26.3095H50.9568V35.1805Z" fill="#98E342"/>
<path d="M44.872 47.1926H6.08571C5.91521 47.1925 5.74748 47.1495 5.59803 47.0674C5.44858 46.9853 5.32223 46.8669 5.23067 46.723L0.159243 38.769C0.0552344 38.606 -1.67084e-05 38.4167 3.79015e-09 38.2233V18.1952C3.79015e-09 17.9262 0.106862 17.6682 0.297077 17.478C0.487293 17.2878 0.74528 17.1809 1.01429 17.1809H34.4857C34.7547 17.1809 35.0127 17.2878 35.2029 17.478C35.3931 17.6682 35.5 17.9262 35.5 18.1952C35.5 18.4642 35.3931 18.7222 35.2029 18.9124C35.0127 19.1027 34.7547 19.2095 34.4857 19.2095H2.02857V37.9271L6.64154 45.1641H43.8577V15.8228C43.8577 15.5538 43.9646 15.2958 44.1548 15.1056C44.345 14.9154 44.603 14.8085 44.872 14.8085C45.141 14.8085 45.399 14.9154 45.5892 15.1056C45.7794 15.2958 45.8863 15.5538 45.8863 15.8228V46.1783C45.8863 46.4474 45.7794 46.7053 45.5892 46.8956C45.399 47.0858 45.141 47.1926 44.872 47.1926Z" fill="#98E342"/>
<path d="M34.4852 19.2095C34.3025 19.2094 34.1234 19.1599 33.9665 19.0664C33.8096 18.9729 33.681 18.8387 33.594 18.6781C33.5071 18.5175 33.4651 18.3364 33.4725 18.154C33.4799 17.9715 33.5365 17.7944 33.6362 17.6414L38.7076 9.85373C38.7997 9.71246 38.9256 9.59636 39.0738 9.51596C39.222 9.43556 39.388 9.39338 39.5566 9.39325H53.7566C54.0256 9.39325 54.2836 9.50011 54.4738 9.69033C54.664 9.88054 54.7709 10.1385 54.7709 10.4075V15.8228C54.7709 16.0918 54.664 16.3498 54.4738 16.54C54.2836 16.7302 54.0256 16.8371 53.7566 16.8371H44.8715C44.6024 16.8371 44.3445 16.7302 44.1542 16.54C43.964 16.3498 43.8572 16.0918 43.8572 15.8228C43.8572 15.5538 43.964 15.2958 44.1542 15.1056C44.3445 14.9154 44.6024 14.8085 44.8715 14.8085H52.7423V11.4218H40.1063L35.3392 18.749C35.2467 18.891 35.12 19.0076 34.9708 19.088C34.8216 19.1684 34.6547 19.2102 34.4852 19.2095V19.2095Z" fill="#98E342"/>
<path d="M56.7998 62.5661C55.4576 62.5663 54.1456 62.1685 53.0295 61.423C51.9135 60.6775 51.0436 59.6177 50.5299 58.3778C50.0162 57.1378 49.8817 55.7734 50.1435 54.457C50.4053 53.1407 51.0516 51.9315 52.0006 50.9824C52.9497 50.0334 54.1588 49.3871 55.4752 49.1253C56.7916 48.8635 58.156 48.998 59.396 49.5117C60.6359 50.0254 61.6956 50.8953 62.4412 52.0113C63.1867 53.1274 63.5845 54.4394 63.5843 55.7816C63.5814 57.5801 62.8656 59.304 61.5939 60.5757C60.3222 61.8474 58.5982 62.5632 56.7998 62.5661V62.5661ZM56.7998 51.0246C55.8589 51.0244 54.9391 51.3032 54.1567 51.8258C53.3742 52.3484 52.7644 53.0912 52.4042 53.9605C52.044 54.8297 51.9496 55.7862 52.133 56.709C52.3165 57.6318 52.7695 58.4796 53.4347 59.1449C54.0999 59.8103 54.9475 60.2635 55.8703 60.4471C56.7931 60.6307 57.7497 60.5366 58.6189 60.1766C59.4882 59.8166 60.2312 59.2068 60.754 58.4245C61.2767 57.6422 61.5558 56.7225 61.5558 55.7816C61.5544 54.5205 61.0529 53.3115 60.1613 52.4197C59.2697 51.5279 58.0608 51.0262 56.7998 51.0246V51.0246Z" fill="#98E342"/>
<path d="M18.6377 62.5661C17.2955 62.5663 15.9835 62.1685 14.8674 61.423C13.7514 60.6775 12.8815 59.6177 12.3678 58.3778C11.8541 57.1378 11.7196 55.7734 11.9814 54.457C12.2432 53.1407 12.8895 51.9315 13.8385 50.9824C14.7876 50.0334 15.9967 49.3871 17.3131 49.1253C18.6295 48.8635 19.9939 48.998 21.2338 49.5117C22.4738 50.0254 23.5335 50.8953 24.2791 52.0113C25.0246 53.1274 25.4224 54.4394 25.4222 55.7816C25.4193 57.5801 24.7035 59.304 23.4318 60.5757C22.1601 61.8474 20.4361 62.5632 18.6377 62.5661V62.5661ZM18.6377 51.0246C17.6968 51.0244 16.777 51.3032 15.9945 51.8258C15.2121 52.3484 14.6022 53.0912 14.242 53.9605C13.8818 54.8297 13.7875 55.7862 13.9709 56.709C14.1544 57.6318 14.6073 58.4796 15.2726 59.1449C15.9378 59.8103 16.7854 60.2635 17.7082 60.4471C18.631 60.6307 19.5876 60.5366 20.4568 60.1766C21.3261 59.8166 22.0691 59.2068 22.5919 58.4245C23.1146 57.6422 23.3936 56.7225 23.3936 55.7816C23.3923 54.5205 22.8908 53.3115 21.9992 52.4197C21.1076 51.5279 19.8987 51.0262 18.6377 51.0246Z" fill="#98E342"/>
<path d="M31.9489 39.2376C31.6799 39.2376 31.4219 39.1307 31.2316 38.9405C31.0414 38.7503 30.9346 38.4923 30.9346 38.2233V26.0519C30.9346 25.7829 31.0414 25.5249 31.2316 25.3347C31.4219 25.1445 31.6799 25.0376 31.9489 25.0376C32.2179 25.0376 32.4759 25.1445 32.6661 25.3347C32.8563 25.5249 32.9631 25.7829 32.9631 26.0519V38.2233C32.9631 38.4923 32.8563 38.7503 32.6661 38.9405C32.4759 39.1307 32.2179 39.2376 31.9489 39.2376Z" fill="#98E342"/>
<path d="M23.3283 39.2376C23.0592 39.2376 22.8013 39.1307 22.611 38.9405C22.4208 38.7503 22.314 38.4923 22.314 38.2233V26.0519C22.314 25.7829 22.4208 25.5249 22.611 25.3347C22.8013 25.1445 23.0592 25.0376 23.3283 25.0376C23.5973 25.0376 23.8552 25.1445 24.0455 25.3347C24.2357 25.5249 24.3425 25.7829 24.3425 26.0519V38.2233C24.3425 38.4923 24.2357 38.7503 24.0455 38.9405C23.8552 39.1307 23.5973 39.2376 23.3283 39.2376Z" fill="#98E342"/>
<path d="M14.7057 39.2376C14.4367 39.2376 14.1787 39.1307 13.9885 38.9405C13.7983 38.7503 13.6914 38.4923 13.6914 38.2233V26.0519C13.6914 25.7829 13.7983 25.5249 13.9885 25.3347C14.1787 25.1445 14.4367 25.0376 14.7057 25.0376C14.9747 25.0376 15.2327 25.1445 15.4229 25.3347C15.6131 25.5249 15.72 25.7829 15.72 26.0519V38.2233C15.72 38.4923 15.6131 38.7503 15.4229 38.9405C15.2327 39.1307 14.9747 39.2376 14.7057 39.2376Z" fill="#98E342"/>
</g>
<defs>
<clipPath id="clip0_567_1335">
<rect width="71" height="71" fill="white"/>
</clipPath>
</defs>
</svg>
