<svg width="44" height="45" viewBox="0 0 44 45" fill="none" xmlns="http://www.w3.org/2000/svg">
<rect width="44" height="44" transform="translate(0 0.399536)" fill="#98E342"/>
<g clip-path="url(#clip0_558_5700)">
<path d="M31.0701 13.2673H12.9348C11.316 13.2673 10 14.5833 10 16.2022V28.5969C10 30.2158 11.316 31.5318 12.9348 31.5318H31.0652C32.684 31.5318 34 30.2158 34 28.5969V16.2071C34.005 14.5883 32.689 13.2673 31.0701 13.2673ZM32.6642 28.5969C32.6642 29.4759 31.9491 30.191 31.0701 30.191H12.9348C12.0559 30.191 11.3408 29.4759 11.3408 28.5969V16.2071C11.3408 15.3282 12.0559 14.6131 12.9348 14.6131H31.0652C31.9441 14.6131 32.6592 15.3282 32.6592 16.2071V28.5969H32.6642Z" fill="black"/>
<path d="M25.1369 22.2456L31.0065 16.9818C31.2797 16.7335 31.3045 16.3114 31.0562 16.0333C30.8079 15.7602 30.3858 15.7354 30.1077 15.9837L22.0134 23.2487L20.4342 21.8384C20.4293 21.8334 20.4243 21.8285 20.4243 21.8235C20.3895 21.7888 20.3548 21.759 20.315 21.7292L13.8892 15.9787C13.6111 15.7304 13.189 15.7552 12.9407 16.0333C12.6924 16.3114 12.7173 16.7335 12.9954 16.9818L18.9345 22.2903L13.0202 27.8272C12.752 28.0805 12.7371 28.5026 12.9904 28.7757C13.1245 28.9148 13.3032 28.9893 13.482 28.9893C13.6459 28.9893 13.8098 28.9297 13.9389 28.8105L19.9426 23.1941L21.5714 24.6491C21.7005 24.7633 21.8594 24.8179 22.0183 24.8179C22.1772 24.8179 22.3411 24.7583 22.4653 24.6441L24.1388 23.1444L30.1077 28.8154C30.2368 28.9396 30.4057 28.9992 30.5695 28.9992C30.7483 28.9992 30.9221 28.9297 31.0562 28.7906C31.3095 28.5225 31.2995 28.0954 31.0314 27.8421L25.1369 22.2456Z" fill="black"/>
</g>
<defs>
<clipPath id="clip0_558_5700">
<rect width="24" height="24" fill="white" transform="translate(10 10.3995)"/>
</clipPath>
</defs>
</svg>
