<svg width="22" height="16" viewBox="0 0 22 16" fill="none" xmlns="http://www.w3.org/2000/svg">
<path d="M0.6875 4.54498H11.1549C11.4703 5.98095 12.7528 7.05899 14.2821 7.05899C15.8114 7.05899 17.0938 5.98099 17.4092 4.54498H21.3125C21.6922 4.54498 22 4.23715 22 3.85748C22 3.47781 21.6922 3.16998 21.3125 3.16998H17.4089C17.0928 1.73474 15.8087 0.656006 14.2821 0.656006C12.7546 0.656006 11.4711 1.73456 11.1552 3.16998H0.6875C0.307828 3.16998 0 3.47781 0 3.85748C0 4.23715 0.307828 4.54498 0.6875 4.54498ZM12.4557 3.85929V3.85189C12.4587 2.84785 13.278 2.03105 14.2821 2.03105C15.2848 2.03105 16.1041 2.84673 16.1084 3.8503L16.1086 3.8604C16.1069 4.86617 15.2883 5.68404 14.2821 5.68404C13.2764 5.68404 12.4579 4.86699 12.4556 3.86182L12.4557 3.85929ZM21.3125 18.7883H17.4089C17.0928 17.3531 15.8087 16.2743 14.2821 16.2743C12.7546 16.2743 11.4711 17.3529 11.1552 18.7883H0.6875C0.307828 18.7883 0 19.0961 0 19.4758C0 19.8555 0.307828 20.1633 0.6875 20.1633H11.1549C11.4703 21.5993 12.7528 22.6773 14.2821 22.6773C15.8114 22.6773 17.0938 21.5993 17.4092 20.1633H21.3125C21.6922 20.1633 22 19.8555 22 19.4758C22 19.0961 21.6922 18.7883 21.3125 18.7883ZM14.2821 21.3023C13.2764 21.3023 12.4579 20.4853 12.4556 19.4801L12.4557 19.4776V19.4702C12.4587 18.4661 13.278 17.6493 14.2821 17.6493C15.2848 17.6493 16.1041 18.465 16.1084 19.4685L16.1086 19.4787C16.1071 20.4845 15.2884 21.3023 14.2821 21.3023ZM21.3125 10.9792H10.8451C10.5297 9.54319 9.24724 8.46519 7.71792 8.46519C6.18857 8.46519 4.90621 9.54319 4.59074 10.9792H0.6875C0.307828 10.9792 0 11.287 0 11.6667C0 12.0463 0.307828 12.3542 0.6875 12.3542H4.59108C4.9072 13.7894 6.19129 14.8681 7.71792 14.8681C9.24541 14.8681 10.5289 13.7896 10.8448 12.3542H21.3125C21.6922 12.3542 22 12.0463 22 11.6667C22 11.287 21.6922 10.9792 21.3125 10.9792ZM9.54433 11.6648V11.6723C9.54131 12.6763 8.72201 13.4931 7.71792 13.4931C6.71524 13.4931 5.89592 12.6774 5.89157 11.6739L5.89144 11.6638C5.89295 10.658 6.71172 9.84021 7.71792 9.84021C8.72364 9.84021 9.54213 10.6572 9.54443 11.6624L9.54433 11.6648Z" fill="black"/>
</svg>
