<svg width="400" height="93" viewBox="0 0 400 93" fill="none" xmlns="http://www.w3.org/2000/svg">
<path d="M260.844 48.9625C257.261 48.9625 253.928 48.3815 250.858 47.2059C247.787 46.0302 245.118 44.3567 242.863 42.199C240.609 40.0275 238.852 37.4825 237.58 34.5641C236.321 31.6458 235.685 28.4369 235.685 24.9376C235.685 21.4383 236.321 18.2295 237.58 15.3111C238.838 12.3927 240.609 9.84773 242.891 7.67623C245.173 5.50473 247.842 3.83115 250.885 2.66932C253.942 1.47984 257.275 0.898926 260.913 0.898926C264.938 0.898926 268.575 1.59049 271.84 2.98744C275.09 4.3844 277.828 6.43142 280.041 9.12851L273.14 15.5047C271.549 13.6928 269.779 12.3235 267.828 11.4245C265.878 10.5116 263.762 10.069 261.452 10.069C259.281 10.069 257.289 10.4286 255.477 11.134C253.665 11.8394 252.089 12.8629 250.761 14.1907C249.433 15.5185 248.409 17.0953 247.676 18.9072C246.943 20.7191 246.584 22.7384 246.584 24.9514C246.584 27.1644 246.943 29.1838 247.676 30.9957C248.409 32.8076 249.433 34.3843 250.761 35.7121C252.089 37.0399 253.665 38.0634 255.477 38.7688C257.289 39.4742 259.281 39.8338 261.452 39.8338C263.748 39.8338 265.878 39.3774 267.828 38.4784C269.779 37.5655 271.549 36.1824 273.14 34.329L280.041 40.7052C277.828 43.4023 275.09 45.4632 271.84 46.8739C268.575 48.2571 264.924 48.9625 260.844 48.9625Z" fill="white"/>
<path d="M309.903 48.1741V8.00821L312.365 10.4702H295.103V1.70117H335.408V10.4702H318.146L320.539 8.00821V48.1741H309.903Z" fill="white"/>
<path d="M97.3862 1.70117H62.2687V10.3319H97.3862V1.70117Z" fill="white"/>
<path d="M97.3862 20.29H62.2687V28.9207H97.3862V20.29Z" fill="white"/>
<path d="M97.3862 39.5435H62.2687V48.1741H97.3862V39.5435Z" fill="white"/>
<path d="M216.459 1.70117H181.342V10.3319H216.459V1.70117Z" fill="white"/>
<path d="M216.459 20.29H181.342V28.9207H216.459V20.29Z" fill="white"/>
<path d="M216.459 39.5435H181.342V48.1741H216.459V39.5435Z" fill="white"/>
<path d="M381.203 30.0413L381.065 29.6956L381.203 30.0413Z" fill="white"/>
<path d="M375.961 7.13685L373.845 12.2544L381.065 29.6956L381.203 30.0414H384.993L387.911 38.2156H384.592L388.713 48.1741H400L379.225 1.70117H369.46L371.715 7.13685H375.961Z" fill="white"/>
<path d="M384.993 30.0415H381.203L384.592 38.2158H387.911L384.993 30.0415Z" fill="white"/>
<path d="M375.961 7.13672H371.715L373.845 12.2543L375.961 7.13672Z" fill="white"/>
<path d="M361.092 30.0415L358.243 38.2158H363.043L366.445 30.0415H361.092Z" fill="white"/>
<path d="M381.203 30.0415H366.445L363.043 38.2158H384.592L381.203 30.0415Z" fill="white"/>
<path d="M361.092 30.0415H355.961L347.884 48.1742H358.907L363.043 38.2158H358.243L361.092 30.0415Z" fill="white"/>
<path d="M373.845 12.2544L381.065 29.6956L373.845 12.2544Z" fill="white"/>
<path d="M36.4177 23.3332C33.4716 20.9819 29.1978 19.8201 23.5685 19.8201H10.6916H0V48.1741H22.047C28.0221 48.1741 32.6418 46.8878 35.9198 44.329C39.1978 41.7564 40.8299 38.1741 40.8299 33.5683C40.8299 29.087 39.3638 25.6845 36.4177 23.3332ZM27.7455 38.5752C26.2794 39.6541 24.177 40.2073 21.4384 40.2073H10.6916V27.7315H21.4523C27.1231 27.7315 29.9447 29.7647 29.9447 33.8449C29.9447 35.9058 29.2116 37.4964 27.7455 38.5752Z" fill="white"/>
<path d="M24.675 10.2627H37.5104V1.70117H0V10.2627H10.6916H24.675Z" fill="white"/>
<path d="M130.982 31.7012V30.5117L130.415 31.0926L130.982 31.7012Z" fill="white"/>
<path d="M130.982 5.35254L126.21 10.4563H130.982V5.35254Z" fill="white"/>
<path d="M130.415 31.0926L130.982 30.5117V26.5974H126.21L130.415 31.0926Z" fill="white"/>
<path d="M158.077 9.52965C156.445 7.01236 154.122 5.07599 151.107 3.72053C148.091 2.36507 144.509 1.70117 140.346 1.70117H120.235V10.4702H126.21L130.996 5.35262V10.4702H132.393H139.765C143.084 10.4702 145.56 11.1756 147.206 12.6002C148.838 14.011 149.668 16.0027 149.668 18.5753C149.668 21.0926 148.852 23.0704 147.206 24.4812C145.574 25.892 143.084 26.6112 139.765 26.6112H132.393H130.982V30.5255V31.7149V35.3664H140.346C144.509 35.3664 148.091 34.6887 151.107 33.347C154.122 31.9916 156.445 30.0552 158.077 27.5379C159.71 25.0206 160.539 22.0331 160.539 18.5753C160.526 15.0621 159.71 12.0469 158.077 9.52965Z" fill="white"/>
<path d="M130.415 31.0923L126.21 35.3523H130.982V31.7009L130.415 31.0923Z" fill="white"/>
<path d="M130.415 31.0926L126.21 26.5974H120.235V48.1741H130.982V35.3526H126.21L130.415 31.0926Z" fill="white"/>
<path d="M2.52 88.8987V74.8987H3.38L9.87999 86.1187H9.41999L15.9 74.8987H16.74L16.76 88.8987H15.76L15.74 76.4387H16.02L9.87999 87.0387H9.37999L3.22 76.4387H3.52V88.8987H2.52ZM19.6573 88.8987L26.0973 74.8987H27.1173L33.5573 88.8987H32.4573L26.3773 75.5387H26.8173L20.7573 88.8987H19.6573ZM22.0173 84.9587L22.3573 84.0987H30.7373L31.0773 84.9587H22.0173ZM42.27 88.9987C41.23 88.9987 40.2633 88.8253 39.37 88.4787C38.49 88.1187 37.7233 87.6187 37.07 86.9787C36.4166 86.3387 35.91 85.592 35.55 84.7387C35.19 83.872 35.01 82.9254 35.01 81.8987C35.01 80.872 35.19 79.932 35.55 79.0787C35.91 78.212 36.4166 77.4587 37.07 76.8187C37.7366 76.1787 38.51 75.6854 39.39 75.3387C40.27 74.9787 41.23 74.7987 42.27 74.7987C43.2566 74.7987 44.1766 74.9587 45.03 75.2787C45.8966 75.5987 46.6366 76.0854 47.25 76.7387L46.61 77.3987C46.01 76.812 45.3433 76.392 44.61 76.1387C43.89 75.872 43.1233 75.7387 42.31 75.7387C41.4166 75.7387 40.5833 75.892 39.81 76.1987C39.05 76.5054 38.3833 76.9387 37.81 77.4987C37.25 78.0587 36.81 78.712 36.49 79.4587C36.1833 80.2054 36.03 81.0187 36.03 81.8987C36.03 82.7787 36.1833 83.592 36.49 84.3387C36.81 85.0854 37.25 85.7387 37.81 86.2987C38.3833 86.8587 39.05 87.292 39.81 87.5987C40.5833 87.9053 41.4166 88.0587 42.31 88.0587C43.1233 88.0587 43.89 87.932 44.61 87.6787C45.3433 87.412 46.01 86.9787 46.61 86.3787L47.25 87.0387C46.6366 87.692 45.8966 88.1853 45.03 88.5187C44.1766 88.8387 43.2566 88.9987 42.27 88.9987ZM53.0915 88.8987V75.4987L53.3915 75.8187H48.0515V74.8987H59.1515V75.8187H53.8115L54.1115 75.4987V88.8987H53.0915ZM62.7754 81.3387H70.3554V82.2387H62.7754V81.3387ZM62.8954 87.9787H71.5354V88.8987H61.8754V74.8987H71.2354V75.8187H62.8954V87.9787ZM74.9418 88.8987V74.8987H79.9618C81.1351 74.8987 82.1418 75.0854 82.9818 75.4587C83.8218 75.832 84.4685 76.372 84.9218 77.0787C85.3751 77.772 85.6018 78.6187 85.6018 79.6187C85.6018 80.592 85.3751 81.432 84.9218 82.1387C84.4685 82.8454 83.8218 83.3854 82.9818 83.7587C82.1418 84.132 81.1351 84.3187 79.9618 84.3187H75.5018L75.9618 83.8387V88.8987H74.9418ZM75.9618 83.8987L75.5018 83.3987H79.9618C81.4685 83.3987 82.6085 83.072 83.3818 82.4187C84.1685 81.752 84.5618 80.8187 84.5618 79.6187C84.5618 78.4054 84.1685 77.472 83.3818 76.8187C82.6085 76.152 81.4685 75.8187 79.9618 75.8187H75.5018L75.9618 75.3187V83.8987ZM95.0629 88.9987C94.0229 88.9987 93.0562 88.8253 92.1629 88.4787C91.2829 88.1187 90.5162 87.6187 89.8629 86.9787C89.2096 86.3387 88.7029 85.592 88.3429 84.7387C87.9829 83.872 87.8029 82.9254 87.8029 81.8987C87.8029 80.872 87.9829 79.932 88.3429 79.0787C88.7029 78.212 89.2096 77.4587 89.8629 76.8187C90.5296 76.1787 91.3029 75.6854 92.1829 75.3387C93.0629 74.9787 94.0229 74.7987 95.0629 74.7987C96.0496 74.7987 96.9696 74.9587 97.8229 75.2787C98.6895 75.5987 99.4295 76.0854 100.043 76.7387L99.4029 77.3987C98.8029 76.812 98.1362 76.392 97.4029 76.1387C96.6829 75.872 95.9162 75.7387 95.1029 75.7387C94.2096 75.7387 93.3762 75.892 92.6029 76.1987C91.8429 76.5054 91.1762 76.9387 90.6029 77.4987C90.0429 78.0587 89.6029 78.712 89.2829 79.4587C88.9762 80.2054 88.8229 81.0187 88.8229 81.8987C88.8229 82.7787 88.9762 83.592 89.2829 84.3387C89.6029 85.0854 90.0429 85.7387 90.6029 86.2987C91.1762 86.8587 91.8429 87.292 92.6029 87.5987C93.3762 87.9053 94.2096 88.0587 95.1029 88.0587C95.9162 88.0587 96.6829 87.932 97.4029 87.6787C98.1362 87.412 98.8029 86.9787 99.4029 86.3787L100.043 87.0387C99.4295 87.692 98.6895 88.1853 97.8229 88.5187C96.9696 88.8387 96.0496 88.9987 95.0629 88.9987ZM113.06 88.8987L107.4 81.8587L108.26 81.3587L114.26 88.8987H113.06ZM103.34 88.8987V74.8987H104.36V88.8987H103.34ZM104.02 82.2587V81.3387H108.28V82.2587H104.02ZM108.32 81.9987L107.38 81.7987L112.76 74.8987H113.9L108.32 81.9987ZM114.481 88.8987L120.921 74.8987H121.941L128.381 88.8987H127.281L121.201 75.5387H121.641L115.581 88.8987H114.481ZM116.841 84.9587L117.181 84.0987H125.561L125.901 84.9587H116.841ZM139.244 88.8987V84.1987L139.564 84.4987H134.784C133.704 84.4987 132.771 84.312 131.984 83.9387C131.211 83.5654 130.618 83.0254 130.204 82.3187C129.804 81.612 129.604 80.7654 129.604 79.7787C129.604 78.7254 129.824 77.8387 130.264 77.1187C130.718 76.3854 131.344 75.832 132.144 75.4587C132.958 75.0854 133.904 74.8987 134.984 74.8987H140.264V88.8987H139.244ZM129.604 88.8987L133.024 83.9987H134.104L130.704 88.8987H129.604ZM139.244 83.9387V75.4987L139.564 75.8187H135.064C133.664 75.8187 132.578 76.152 131.804 76.8187C131.031 77.4854 130.644 78.4654 130.644 79.7587C130.644 80.9854 130.998 81.9387 131.704 82.6187C132.424 83.2854 133.484 83.6187 134.884 83.6187H139.564L139.244 83.9387ZM150.45 88.8987V74.8987H161.97V88.8987H160.95V75.4987L161.25 75.8187H151.17L151.47 75.4987V88.8987H150.45ZM173.012 88.9987C171.972 88.9987 171.005 88.8253 170.112 88.4787C169.232 88.1187 168.459 87.6187 167.792 86.9787C167.139 86.3254 166.632 85.572 166.272 84.7187C165.912 83.852 165.732 82.912 165.732 81.8987C165.732 80.8854 165.912 79.952 166.272 79.0987C166.632 78.232 167.139 77.4787 167.792 76.8387C168.459 76.1854 169.232 75.6854 170.112 75.3387C171.005 74.9787 171.972 74.7987 173.012 74.7987C174.052 74.7987 175.012 74.9787 175.892 75.3387C176.785 75.6854 177.559 76.1787 178.212 76.8187C178.865 77.4587 179.372 78.212 179.732 79.0787C180.105 79.932 180.292 80.872 180.292 81.8987C180.292 82.9254 180.105 83.872 179.732 84.7387C179.372 85.592 178.865 86.3387 178.212 86.9787C177.559 87.6187 176.785 88.1187 175.892 88.4787C175.012 88.8253 174.052 88.9987 173.012 88.9987ZM173.012 88.0587C173.905 88.0587 174.732 87.9053 175.492 87.5987C176.252 87.292 176.912 86.8587 177.472 86.2987C178.032 85.7387 178.465 85.0854 178.772 84.3387C179.092 83.592 179.252 82.7787 179.252 81.8987C179.252 81.0054 179.092 80.192 178.772 79.4587C178.465 78.712 178.032 78.0587 177.472 77.4987C176.912 76.9387 176.252 76.5054 175.492 76.1987C174.732 75.892 173.905 75.7387 173.012 75.7387C172.119 75.7387 171.292 75.892 170.532 76.1987C169.772 76.5054 169.105 76.9387 168.532 77.4987C167.972 78.0587 167.532 78.712 167.212 79.4587C166.905 80.192 166.752 81.0054 166.752 81.8987C166.752 82.7787 166.905 83.592 167.212 84.3387C167.532 85.0854 167.972 85.7387 168.532 86.2987C169.105 86.8587 169.772 87.292 170.532 87.5987C171.292 87.9053 172.119 88.0587 173.012 88.0587ZM198.48 88.3987V75.8187H191.32L191.2 79.5787C191.16 80.6854 191.093 81.7454 191 82.7587C190.906 83.772 190.766 84.6854 190.58 85.4987C190.393 86.2987 190.133 86.9453 189.8 87.4387C189.48 87.932 189.073 88.1987 188.58 88.2387L187.4 87.9787C187.96 88.0187 188.413 87.8253 188.76 87.3987C189.12 86.972 189.4 86.3654 189.6 85.5787C189.813 84.792 189.966 83.8787 190.06 82.8387C190.153 81.7987 190.22 80.6854 190.26 79.4987L190.4 74.8987H199.5V88.3987H198.48ZM186.88 92.0987L186.9 87.9787H201.66V92.0987H200.68V88.8987H187.88L187.86 92.0987H186.88ZM205.822 81.3387H213.402V82.2387H205.822V81.3387ZM205.942 87.9787H214.582V88.8987H204.922V74.8987H214.282V75.8187H205.942V87.9787ZM217.989 88.8987V74.8987H223.009C224.182 74.8987 225.189 75.0854 226.029 75.4587C226.869 75.832 227.515 76.372 227.969 77.0787C228.422 77.772 228.649 78.6187 228.649 79.6187C228.649 80.592 228.422 81.432 227.969 82.1387C227.515 82.8454 226.869 83.3854 226.029 83.7587C225.189 84.132 224.182 84.3187 223.009 84.3187H218.549L219.009 83.8387V88.8987H217.989ZM219.009 83.8987L218.549 83.3987H223.009C224.515 83.3987 225.655 83.072 226.429 82.4187C227.215 81.752 227.609 80.8187 227.609 79.6187C227.609 78.4054 227.215 77.472 226.429 76.8187C225.655 76.152 224.515 75.8187 223.009 75.8187H218.549L219.009 75.3187V83.8987ZM232.814 81.3387H240.394V82.2387H232.814V81.3387ZM232.934 87.9787H241.574V88.8987H231.914V74.8987H241.274V75.8187H232.934V87.9787ZM244.981 88.8987V74.8987H250.621C252.061 74.8987 253.194 75.1987 254.021 75.7987C254.861 76.3987 255.281 77.2854 255.281 78.4587C255.281 79.6187 254.874 80.492 254.061 81.0787C253.261 81.6654 252.214 81.9587 250.921 81.9587L251.261 81.5587C252.821 81.5587 254.001 81.8654 254.801 82.4787C255.601 83.092 256.001 83.992 256.001 85.1787C256.001 86.3654 255.587 87.2853 254.761 87.9387C253.934 88.5787 252.681 88.8987 251.001 88.8987H244.981ZM246.001 88.0387H251.021C252.314 88.0387 253.294 87.8053 253.961 87.3387C254.641 86.8587 254.981 86.1187 254.981 85.1187C254.981 84.1054 254.641 83.372 253.961 82.9187C253.294 82.452 252.314 82.2187 251.021 82.2187H246.001V88.0387ZM246.001 81.3787H250.601C251.761 81.3787 252.654 81.1454 253.281 80.6787C253.921 80.1987 254.241 79.4987 254.241 78.5787C254.241 77.6454 253.921 76.9454 253.281 76.4787C252.654 75.9987 251.761 75.7587 250.601 75.7587H246.001V81.3787ZM259.365 87.8587C260.019 88.112 260.652 88.172 261.265 88.0387C261.879 87.892 262.459 87.392 263.005 86.5387L263.685 85.4787L263.805 85.3187L269.325 74.8987H270.385L263.925 86.7787C263.525 87.5387 263.052 88.0987 262.505 88.4587C261.972 88.8187 261.405 89.0053 260.805 89.0187C260.219 89.0453 259.632 88.9387 259.045 88.6987L259.365 87.8587ZM263.745 86.2987L257.745 74.8987H258.865L264.325 85.3987L263.745 86.2987ZM278.34 88.8987V74.8987H279.36V87.1787L288.9 74.8987H289.8V88.8987H288.78V76.6387L279.24 88.8987H278.34ZM299.981 88.8987V74.8987H300.841L307.341 86.1187H306.881L313.361 74.8987H314.201L314.221 88.8987H313.221L313.201 76.4387H313.481L307.341 87.0387H306.841L300.681 76.4387H300.981V88.8987H299.981ZM320.158 81.3387H327.738V82.2387H320.158V81.3387ZM320.278 87.9787H328.918V88.8987H319.258V74.8987H328.618V75.8187H320.278V87.9787ZM335.044 88.8987V75.4987L335.344 75.8187H330.004V74.8987H341.104V75.8187H335.764L336.064 75.4987V88.8987H335.044ZM340.985 88.8987L347.425 74.8987H348.445L354.885 88.8987H353.785L347.705 75.5387H348.145L342.085 88.8987H340.985ZM343.345 84.9587L343.685 84.0987H352.065L352.405 84.9587H343.345ZM356.453 88.9987C356.293 88.9987 356.133 88.9853 355.973 88.9587C355.826 88.9453 355.653 88.9187 355.453 88.8787L355.573 87.9387C355.8 87.992 356.02 88.0187 356.233 88.0187C356.846 88.0187 357.34 87.7787 357.713 87.2987C358.1 86.8187 358.393 86.0654 358.593 85.0387C358.793 83.9987 358.926 82.6454 358.993 80.9787L359.193 74.8987H368.373V88.8987H367.353V75.4987L367.653 75.8187H359.833L360.133 75.4987L359.933 80.9587C359.88 82.372 359.78 83.5854 359.633 84.5987C359.486 85.5987 359.273 86.4254 358.993 87.0787C358.726 87.732 358.38 88.2187 357.953 88.5387C357.54 88.8453 357.04 88.9987 356.453 88.9987ZM371.824 88.9987C371.664 88.9987 371.504 88.9853 371.344 88.9587C371.198 88.9453 371.024 88.9187 370.824 88.8787L370.944 87.9387C371.171 87.992 371.391 88.0187 371.604 88.0187C372.218 88.0187 372.711 87.7787 373.084 87.2987C373.471 86.8187 373.764 86.0654 373.964 85.0387C374.164 83.9987 374.298 82.6454 374.364 80.9787L374.564 74.8987H383.744V88.8987H382.724V75.4987L383.024 75.8187H375.204L375.504 75.4987L375.304 80.9587C375.251 82.372 375.151 83.5854 375.004 84.5987C374.858 85.5987 374.644 86.4254 374.364 87.0787C374.098 87.732 373.751 88.2187 373.324 88.5387C372.911 88.8453 372.411 88.9987 371.824 88.9987ZM388.369 87.8587C389.023 88.112 389.656 88.172 390.269 88.0387C390.883 87.892 391.463 87.392 392.009 86.5387L392.689 85.4787L392.809 85.3187L398.329 74.8987H399.389L392.929 86.7787C392.529 87.5387 392.056 88.0987 391.509 88.4587C390.976 88.8187 390.409 89.0053 389.809 89.0187C389.223 89.0453 388.636 88.9387 388.049 88.6987L388.369 87.8587ZM392.749 86.2987L386.749 74.8987H387.869L393.329 85.3987L392.749 86.2987Z" fill="white"/>
</svg>
