<svg width="261" height="60" viewBox="0 0 261 60" fill="none" xmlns="http://www.w3.org/2000/svg">
<g clip-path="url(#clip0_501_3896)">
<path d="M170.116 31.3458C167.779 31.3458 165.605 30.967 163.602 30.2002C161.6 29.4335 159.859 28.342 158.389 26.9348C156.919 25.5187 155.773 23.8589 154.943 21.9556C154.122 20.0523 153.708 17.9596 153.708 15.6774C153.708 13.3953 154.122 11.3026 154.943 9.39926C155.764 7.49596 156.919 5.83619 158.407 4.41999C159.895 3.00379 161.636 1.91232 163.621 1.15461C165.614 0.378856 167.788 0 170.161 0C172.786 0 175.158 0.451019 177.286 1.36208C179.406 2.27314 181.192 3.60815 182.635 5.36713L178.135 9.52552C177.097 8.34385 175.943 7.45083 174.67 6.86452C173.399 6.26917 172.019 5.98051 170.512 5.98051C169.096 5.98051 167.797 6.21505 166.615 6.67507C165.434 7.13511 164.405 7.80261 163.54 8.66856C162.674 9.53452 162.006 10.5629 161.528 11.7445C161.05 12.9262 160.816 14.2432 160.816 15.6865C160.816 17.1297 161.05 18.4467 161.528 19.6283C162.006 20.81 162.674 21.8384 163.54 22.7043C164.405 23.5703 165.434 24.2378 166.615 24.6978C167.797 25.1579 169.096 25.3924 170.512 25.3924C172.009 25.3924 173.399 25.0947 174.67 24.5084C175.943 23.9131 177.097 23.011 178.135 21.8022L182.635 25.9607C181.192 27.7197 179.406 29.0637 177.286 29.9838C175.158 30.8858 172.776 31.3458 170.116 31.3458Z" fill="#1D1D1D"/>
<path d="M202.111 30.8317V4.63646L203.716 6.24209H192.459V0.523163H218.744V6.24209H207.487L209.047 4.63646V30.8317H202.111Z" fill="#1D1D1D"/>
<path d="M63.5126 0.523163H40.6099V6.15188H63.5126V0.523163Z" fill="#1D1D1D"/>
<path d="M63.5126 12.6466H40.6099V18.2753H63.5126V12.6466Z" fill="#1D1D1D"/>
<path d="M63.5126 25.2029H40.6099V30.8317H63.5126V25.2029Z" fill="#1D1D1D"/>
<path d="M141.169 0.523163H118.267V6.15188H141.169V0.523163Z" fill="#1D1D1D"/>
<path d="M141.169 12.6466H118.267V18.2753H141.169V12.6466Z" fill="#1D1D1D"/>
<path d="M141.169 25.2029H118.267V30.8317H141.169V25.2029Z" fill="#1D1D1D"/>
<path d="M248.611 19.006L248.521 18.7805L248.611 19.006Z" fill="#1D1D1D"/>
<path d="M245.192 4.06818L243.812 7.40569L248.52 18.7805L248.61 19.0059H251.082L252.985 24.337H250.821L253.509 30.8317H260.869L247.32 0.523163H240.953L242.423 4.06818H245.192Z" fill="#1D1D1D"/>
<path d="M251.083 19.006H248.611L250.821 24.337H252.986L251.083 19.006Z" fill="#1D1D1D"/>
<path d="M245.192 4.06821H242.423L243.812 7.40576L245.192 4.06821Z" fill="#1D1D1D"/>
<path d="M235.495 19.006L233.637 24.337H236.767L238.986 19.006H235.495Z" fill="#1D1D1D"/>
<path d="M248.611 19.006H238.986L236.767 24.337H250.821L248.611 19.006Z" fill="#1D1D1D"/>
<path d="M235.495 19.006H232.148L226.881 30.8317H234.07L236.767 24.337H233.637L235.495 19.006Z" fill="#1D1D1D"/>
<path d="M243.812 7.40576L248.521 18.7805L243.812 7.40576Z" fill="#1D1D1D"/>
<path d="M23.7507 14.6311C21.8293 13.0976 19.042 12.3399 15.3708 12.3399H6.97278H0V30.8317H14.3785C18.2753 30.8317 21.2881 29.9928 23.426 28.324C25.5638 26.6462 26.6282 24.3099 26.6282 21.3061C26.6282 18.3835 25.672 16.1645 23.7507 14.6311ZM18.0949 24.5715C17.1387 25.2751 15.7676 25.6359 13.9816 25.6359H6.97278V17.4995H13.9906C17.689 17.4995 19.5292 18.8255 19.5292 21.4865C19.5292 22.8306 19.051 23.8679 18.0949 24.5715Z" fill="#1D1D1D"/>
<path d="M16.0924 6.10678H24.4633V0.523163H0V6.10678H6.97278H16.0924Z" fill="#1D1D1D"/>
<path d="M85.423 20.0884V19.3126L85.0532 19.6915L85.423 20.0884Z" fill="#1D1D1D"/>
<path d="M85.4232 2.90457L82.311 6.23309H85.4232V2.90457Z" fill="#1D1D1D"/>
<path d="M85.0534 19.6915L85.4232 19.3126V16.7599H82.311L85.0534 19.6915Z" fill="#1D1D1D"/>
<path d="M103.094 5.6287C102.029 3.98699 100.514 2.72414 98.5473 1.84014C96.581 0.956144 94.2449 0.523163 91.5299 0.523163H78.4141V6.24209H82.3108L85.4321 2.90455V6.24209H86.3432H91.151C93.3156 6.24209 94.9304 6.70213 96.0038 7.63122C97.0682 8.5513 97.6095 9.85024 97.6095 11.528C97.6095 13.1697 97.0773 14.4597 96.0038 15.3798C94.9395 16.2998 93.3156 16.7689 91.151 16.7689H86.3432H85.423V19.3216V20.0974V22.4788H91.5299C94.2449 22.4788 96.581 22.0368 98.5473 21.1618C100.514 20.2778 102.029 19.015 103.094 17.3733C104.159 15.7315 104.699 13.7831 104.699 11.528C104.691 9.23687 104.159 7.27043 103.094 5.6287Z" fill="#1D1D1D"/>
<path d="M85.0534 19.6915L82.311 22.4698H85.4232V20.0884L85.0534 19.6915Z" fill="#1D1D1D"/>
<path d="M85.0532 19.6915L82.3108 16.7599H78.4141V30.8316H85.423V22.4698H82.3108L85.0532 19.6915Z" fill="#1D1D1D"/>
<path d="M1.64355 57.7174V48.587H2.20442L6.44355 55.9044H6.14355L10.3696 48.587H10.9175L10.9305 57.7174H10.2783L10.2653 49.5913H10.4479L6.44355 56.5044H6.11747L2.10008 49.5913H2.29573V57.7174H1.64355ZM12.8201 57.7174L17.0201 48.587H17.6853L21.8853 57.7174H21.1679L17.2027 49.0044H17.4896L13.5374 57.7174H12.8201ZM14.3592 55.1478L14.5809 54.587H20.0461L20.2679 55.1478H14.3592ZM27.5675 57.7826C26.8892 57.7826 26.2588 57.6696 25.6762 57.4435C25.1023 57.2087 24.6022 56.8826 24.1762 56.4652C23.7501 56.0478 23.4196 55.5608 23.1849 55.0043C22.9501 54.4391 22.8327 53.8218 22.8327 53.1522C22.8327 52.4826 22.9501 51.8695 23.1849 51.313C23.4196 50.7478 23.7501 50.2565 24.1762 49.8391C24.611 49.4217 25.1153 49.1 25.6892 48.8739C26.2631 48.6391 26.8892 48.5217 27.5675 48.5217C28.211 48.5217 28.811 48.6261 29.3675 48.8348C29.9327 49.0435 30.4153 49.3609 30.8153 49.787L30.3979 50.2174C30.0066 49.8348 29.5718 49.5609 29.0936 49.3957C28.624 49.2217 28.124 49.1348 27.5936 49.1348C27.011 49.1348 26.4674 49.2348 25.9631 49.4348C25.4675 49.6348 25.0327 49.9174 24.6588 50.2826C24.2936 50.6478 24.0066 51.0739 23.7979 51.5609C23.5979 52.0478 23.4979 52.5783 23.4979 53.1522C23.4979 53.7261 23.5979 54.2565 23.7979 54.7435C24.0066 55.2305 24.2936 55.6565 24.6588 56.0217C25.0327 56.387 25.4675 56.6695 25.9631 56.8696C26.4674 57.0696 27.011 57.1696 27.5936 57.1696C28.124 57.1696 28.624 57.0869 29.0936 56.9217C29.5718 56.7478 30.0066 56.4652 30.3979 56.0739L30.8153 56.5044C30.4153 56.9304 29.9327 57.2522 29.3675 57.4696C28.811 57.6783 28.211 57.7826 27.5675 57.7826ZM34.625 57.7174V48.9783L34.8207 49.187H31.3381V48.587H38.5772V49.187H35.0946L35.2902 48.9783V57.7174H34.625ZM40.9406 52.787H45.8841V53.3739H40.9406V52.787ZM41.0189 57.1174H46.6537V57.7174H40.3537V48.587H46.458V49.187H41.0189V57.1174ZM48.8752 57.7174V48.587H52.1491C52.9143 48.587 53.5709 48.7087 54.1187 48.9522C54.6665 49.1956 55.0882 49.5478 55.3839 50.0087C55.6796 50.4609 55.8274 51.013 55.8274 51.6652C55.8274 52.3 55.6796 52.8478 55.3839 53.3087C55.0882 53.7696 54.6665 54.1218 54.1187 54.3652C53.5709 54.6087 52.9143 54.7304 52.1491 54.7304H49.2404L49.5404 54.4174V57.7174H48.8752ZM49.5404 54.4565L49.2404 54.1304H52.1491C53.1317 54.1304 53.8752 53.9174 54.3796 53.4913C54.8926 53.0565 55.1491 52.4478 55.1491 51.6652C55.1491 50.8739 54.8926 50.2652 54.3796 49.8391C53.8752 49.4043 53.1317 49.187 52.1491 49.187H49.2404L49.5404 48.8609V54.4565ZM61.9977 57.7826C61.3194 57.7826 60.689 57.6696 60.1064 57.4435C59.5325 57.2087 59.0324 56.8826 58.6064 56.4652C58.1803 56.0478 57.8499 55.5608 57.6151 55.0043C57.3803 54.4391 57.2629 53.8218 57.2629 53.1522C57.2629 52.4826 57.3803 51.8695 57.6151 51.313C57.8499 50.7478 58.1803 50.2565 58.6064 49.8391C59.0411 49.4217 59.5455 49.1 60.1194 48.8739C60.6933 48.6391 61.3194 48.5217 61.9977 48.5217C62.6411 48.5217 63.2411 48.6261 63.7977 48.8348C64.3629 49.0435 64.8455 49.3609 65.2455 49.787L64.8281 50.2174C64.4368 49.8348 64.002 49.5609 63.5238 49.3957C63.0542 49.2217 62.5542 49.1348 62.0238 49.1348C61.4411 49.1348 60.8977 49.2348 60.3933 49.4348C59.8977 49.6348 59.4629 49.9174 59.089 50.2826C58.7238 50.6478 58.4368 51.0739 58.2281 51.5609C58.0281 52.0478 57.9281 52.5783 57.9281 53.1522C57.9281 53.7261 58.0281 54.2565 58.2281 54.7435C58.4368 55.2305 58.7238 55.6565 59.089 56.0217C59.4629 56.387 59.8977 56.6695 60.3933 56.8696C60.8977 57.0696 61.4411 57.1696 62.0238 57.1696C62.5542 57.1696 63.0542 57.0869 63.5238 56.9217C64.002 56.7478 64.4368 56.4652 64.8281 56.0739L65.2455 56.5044C64.8455 56.9304 64.3629 57.2522 63.7977 57.4696C63.2411 57.6783 62.6411 57.7826 61.9977 57.7826ZM73.7349 57.7174L70.0436 53.1261L70.6044 52.8L74.5175 57.7174H73.7349ZM67.3957 57.7174V48.587H68.061V57.7174H67.3957ZM67.8392 53.387V52.787H70.6175V53.387H67.8392ZM70.6436 53.2174L70.0305 53.087L73.5392 48.587H74.2827L70.6436 53.2174ZM74.6623 57.7174L78.8623 48.587H79.5275L83.7275 57.7174H83.0101L79.0449 49.0044H79.3318L75.3796 57.7174H74.6623ZM76.2014 55.1478L76.4231 54.587H81.8883L82.1101 55.1478H76.2014ZM90.812 57.7174V54.6522L91.0207 54.8478H87.9033C87.199 54.8478 86.5899 54.7261 86.0772 54.4826C85.5725 54.2392 85.1857 53.887 84.9164 53.4261C84.6555 52.9652 84.5251 52.4131 84.5251 51.7696C84.5251 51.0826 84.6686 50.5044 84.9555 50.0348C85.251 49.5565 85.6599 49.1956 86.1816 48.9522C86.7118 48.7087 87.3294 48.587 88.0338 48.587H91.4772V57.7174H90.812ZM84.5251 57.7174L86.7555 54.5217H87.4599L85.2425 57.7174H84.5251ZM90.812 54.4826V48.9783L91.0207 49.187H88.0859C87.1729 49.187 86.464 49.4043 85.9599 49.8391C85.4551 50.2739 85.2033 50.9131 85.2033 51.7565C85.2033 52.5565 85.4336 53.1783 85.8946 53.6217C86.3642 54.0565 87.0555 54.2739 87.9686 54.2739H91.0207L90.812 54.4826ZM98.1196 57.7174V48.587H105.633V57.7174H104.967V48.9783L105.163 49.187H98.5892L98.7849 48.9783V57.7174H98.1196ZM112.834 57.7826C112.156 57.7826 111.526 57.6696 110.943 57.4435C110.369 57.2087 109.865 56.8826 109.43 56.4652C109.004 56.0392 108.673 55.5478 108.438 54.9913C108.204 54.4261 108.086 53.813 108.086 53.1522C108.086 52.4913 108.204 51.8826 108.438 51.3261C108.673 50.7608 109.004 50.2696 109.43 49.8522C109.865 49.4261 110.369 49.1 110.943 48.8739C111.526 48.6391 112.156 48.5217 112.834 48.5217C113.512 48.5217 114.138 48.6391 114.712 48.8739C115.295 49.1 115.799 49.4217 116.225 49.8391C116.652 50.2565 116.982 50.7478 117.217 51.313C117.461 51.8695 117.582 52.4826 117.582 53.1522C117.582 53.8218 117.461 54.4391 117.217 55.0043C116.982 55.5608 116.652 56.0478 116.225 56.4652C115.799 56.8826 115.295 57.2087 114.712 57.4435C114.138 57.6696 113.512 57.7826 112.834 57.7826ZM112.834 57.1696C113.417 57.1696 113.956 57.0696 114.451 56.8696C114.947 56.6695 115.377 56.387 115.743 56.0217C116.108 55.6565 116.391 55.2305 116.591 54.7435C116.799 54.2565 116.904 53.7261 116.904 53.1522C116.904 52.5696 116.799 52.0391 116.591 51.5609C116.391 51.0739 116.108 50.6478 115.743 50.2826C115.377 49.9174 114.947 49.6348 114.451 49.4348C113.956 49.2348 113.417 49.1348 112.834 49.1348C112.252 49.1348 111.712 49.2348 111.217 49.4348C110.721 49.6348 110.287 49.9174 109.912 50.2826C109.547 50.6478 109.26 51.0739 109.051 51.5609C108.852 52.0391 108.751 52.5696 108.751 53.1522C108.751 53.7261 108.852 54.2565 109.051 54.7435C109.26 55.2305 109.547 55.6565 109.912 56.0217C110.287 56.387 110.721 56.6695 111.217 56.8696C111.712 57.0696 112.252 57.1696 112.834 57.1696ZM129.444 57.3913V49.187H124.774L124.696 51.6391C124.67 52.3609 124.626 53.0522 124.565 53.713C124.504 54.3739 124.413 54.9696 124.291 55.5C124.169 56.0217 124 56.4435 123.783 56.7652C123.574 57.0869 123.309 57.2609 122.987 57.287L122.217 57.1174C122.583 57.1435 122.878 57.0174 123.104 56.7391C123.339 56.4609 123.522 56.0652 123.652 55.5522C123.791 55.0391 123.891 54.4435 123.952 53.7652C124.013 53.087 124.057 52.3609 124.083 51.587L124.174 48.587H130.109V57.3913H129.444ZM121.878 59.8043L121.891 57.1174H131.517V59.8043H130.878V57.7174H122.531L122.517 59.8043H121.878ZM134.232 52.787H139.175V53.3739H134.232V52.787ZM134.31 57.1174H139.945V57.7174H133.645V48.587H139.749V49.187H134.31V57.1174ZM142.167 57.7174V48.587H145.441C146.206 48.587 146.862 48.7087 147.41 48.9522C147.958 49.1956 148.379 49.5478 148.676 50.0087C148.971 50.4609 149.119 51.013 149.119 51.6652C149.119 52.3 148.971 52.8478 148.676 53.3087C148.379 53.7696 147.958 54.1218 147.41 54.3652C146.862 54.6087 146.206 54.7304 145.441 54.7304H142.532L142.832 54.4174V57.7174H142.167ZM142.832 54.4565L142.532 54.1304H145.441C146.423 54.1304 147.166 53.9174 147.671 53.4913C148.184 53.0565 148.441 52.4478 148.441 51.6652C148.441 50.8739 148.184 50.2652 147.671 49.8391C147.166 49.4043 146.423 49.187 145.441 49.187H142.532L142.832 48.8609V54.4565ZM151.836 52.787H156.779V53.3739H151.836V52.787ZM151.914 57.1174H157.549V57.7174H151.249V48.587H157.353V49.187H151.914V57.1174ZM159.77 57.7174V48.587H163.449C164.388 48.587 165.127 48.7826 165.666 49.1739C166.214 49.5652 166.488 50.1435 166.488 50.9087C166.488 51.6652 166.222 52.2348 165.692 52.6174C165.17 53 164.487 53.1913 163.644 53.1913L163.866 52.9304C164.883 52.9304 165.653 53.1305 166.175 53.5304C166.696 53.9304 166.957 54.5174 166.957 55.2913C166.957 56.0652 166.688 56.6652 166.149 57.0913C165.609 57.5087 164.792 57.7174 163.696 57.7174H159.77ZM160.436 57.1565H163.709C164.553 57.1565 165.192 57.0044 165.627 56.7C166.07 56.387 166.292 55.9044 166.292 55.2522C166.292 54.5913 166.07 54.113 165.627 53.8174C165.192 53.513 164.553 53.3609 163.709 53.3609H160.436V57.1565ZM160.436 52.813H163.436C164.192 52.813 164.774 52.6609 165.183 52.3565C165.601 52.0435 165.809 51.587 165.809 50.987C165.809 50.3783 165.601 49.9218 165.183 49.6174C164.774 49.3044 164.192 49.1478 163.436 49.1478H160.436V52.813ZM169.152 57.0391C169.578 57.2043 169.991 57.2435 170.391 57.1565C170.791 57.0609 171.169 56.7348 171.526 56.1783L171.969 55.487L172.047 55.3826L175.647 48.587H176.339L172.126 56.3348C171.865 56.8304 171.556 57.1957 171.2 57.4304C170.851 57.6652 170.482 57.787 170.091 57.7957C169.708 57.8131 169.325 57.7435 168.943 57.587L169.152 57.0391ZM172.008 56.0217L168.095 48.587H168.826L172.387 55.4348L172.008 56.0217ZM181.526 57.7174V48.587H182.191V56.5957L188.413 48.587H189V57.7174H188.335V49.7217L182.113 57.7174H181.526ZM195.64 57.7174V48.587H196.201L200.44 55.9044H200.14L204.366 48.587H204.914L204.927 57.7174H204.275L204.262 49.5913H204.444L200.44 56.5044H200.114L196.096 49.5913H196.292V57.7174H195.64ZM208.799 52.787H213.742V53.3739H208.799V52.787ZM208.877 57.1174H214.512V57.7174H208.212V48.587H214.316V49.187H208.877V57.1174ZM218.508 57.7174V48.9783L218.703 49.187H215.221V48.587H222.46V49.187H218.977L219.173 48.9783V57.7174H218.508ZM222.382 57.7174L226.582 48.587H227.247L231.447 57.7174H230.729L226.764 49.0044H227.051L223.099 57.7174H222.382ZM223.921 55.1478L224.142 54.587H229.608L229.829 55.1478H223.921ZM232.469 57.7826C232.365 57.7826 232.261 57.7739 232.156 57.7565C232.061 57.7479 231.948 57.7304 231.817 57.7044L231.896 57.0913C232.044 57.1261 232.187 57.1435 232.326 57.1435C232.726 57.1435 233.048 56.987 233.291 56.6739C233.544 56.3609 233.735 55.8696 233.865 55.2C233.996 54.5217 234.083 53.6392 234.126 52.5522L234.256 48.587H240.243V57.7174H239.578V48.9783L239.774 49.187H234.674L234.869 48.9783L234.739 52.5391C234.704 53.4609 234.639 54.2522 234.543 54.913C234.448 55.5652 234.309 56.1044 234.126 56.5304C233.952 56.9565 233.726 57.2739 233.448 57.4826C233.178 57.6826 232.852 57.7826 232.469 57.7826ZM242.495 57.7826C242.39 57.7826 242.286 57.7739 242.182 57.7565C242.086 57.7479 241.973 57.7304 241.842 57.7044L241.921 57.0913C242.068 57.1261 242.212 57.1435 242.351 57.1435C242.751 57.1435 243.072 56.987 243.316 56.6739C243.568 56.3609 243.76 55.8696 243.89 55.2C244.021 54.5217 244.107 53.6392 244.151 52.5522L244.282 48.587H250.269V57.7174H249.603V48.9783L249.799 49.187H244.699L244.895 48.9783L244.764 52.5391C244.729 53.4609 244.664 54.2522 244.569 54.913C244.473 55.5652 244.334 56.1044 244.151 56.5304C243.977 56.9565 243.751 57.2739 243.473 57.4826C243.203 57.6826 242.877 57.7826 242.495 57.7826ZM253.285 57.0391C253.711 57.2043 254.124 57.2435 254.524 57.1565C254.924 57.0609 255.302 56.7348 255.659 56.1783L256.102 55.487L256.181 55.3826L259.781 48.587H260.472L256.259 56.3348C255.998 56.8304 255.689 57.1957 255.333 57.4304C254.984 57.6652 254.615 57.787 254.224 57.7957C253.841 57.8131 253.458 57.7435 253.076 57.587L253.285 57.0391ZM256.141 56.0217L252.228 48.587H252.959L256.52 55.4348L256.141 56.0217Z" fill="black"/>
</g>
<defs>
<clipPath id="clip0_501_3896">
<rect width="260.87" height="60" fill="white"/>
</clipPath>
</defs>
</svg>
