<svg width="71" height="71" viewBox="0 0 30 30" fill="none" xmlns="http://www.w3.org/2000/svg">
<path d="M18.9716 8.7005L15.5272 12.1454C15.45 12.2253 15.4073 12.3323 15.4082 12.4435C15.4092 12.5546 15.4538 12.6609 15.5323 12.7395C15.6109 12.8181 15.7172 12.8626 15.8283 12.8636C15.9395 12.8646 16.0465 12.8218 16.1265 12.7446L19.7739 9.09677C19.8337 9.03691 19.8742 8.96052 19.8903 8.87743C19.9063 8.79434 19.897 8.70836 19.8638 8.63056L19.4649 7.69815C19.2975 7.30732 19.2269 6.88183 19.2591 6.45786C19.2914 6.03389 19.4256 5.62399 19.6504 5.26303C19.8751 4.90207 20.1836 4.60072 20.5498 4.38463C20.916 4.16854 21.329 4.04409 21.7536 4.02188L24.2232 3.89176C24.2363 3.88933 24.2499 3.89184 24.2612 3.89881C24.2726 3.90578 24.2809 3.91671 24.2847 3.92948C24.291 3.94107 24.2931 3.95445 24.2907 3.9674C24.2883 3.98036 24.2816 3.99211 24.2716 4.00069L21.8723 6.39997C21.7928 6.47945 21.7482 6.58723 21.7482 6.69961C21.7482 6.81199 21.7928 6.91978 21.8723 6.99926L23.6702 8.79713C23.7496 8.87658 23.8574 8.92122 23.9698 8.92122C24.0822 8.92122 24.19 8.87658 24.2694 8.79713L26.6679 6.39912C26.677 6.39023 26.6887 6.38428 26.7013 6.38205C26.7138 6.37982 26.7268 6.38141 26.7385 6.38661C26.7501 6.3918 26.76 6.40037 26.7667 6.41121C26.7735 6.42205 26.7768 6.43467 26.7764 6.44743L26.6467 8.91707C26.6245 9.34169 26.5 9.75465 26.2839 10.1208C26.0678 10.487 25.7665 10.7956 25.4055 11.0203C25.0446 11.245 24.6347 11.3793 24.2107 11.4115C23.7867 11.4438 23.3612 11.3732 22.9704 11.2057L22.038 10.8069C21.9602 10.7736 21.8742 10.7644 21.7911 10.7804C21.708 10.7964 21.6316 10.837 21.5718 10.8968L17.9248 14.5429C17.8843 14.582 17.852 14.6288 17.8298 14.6805C17.8076 14.7322 17.7959 14.7878 17.7954 14.8441C17.7949 14.9004 17.8056 14.9562 17.8269 15.0083C17.8482 15.0604 17.8797 15.1077 17.9195 15.1475C17.9593 15.1873 18.0066 15.2187 18.0587 15.2401C18.1108 15.2614 18.1666 15.2721 18.2229 15.2716C18.2792 15.2711 18.3348 15.2594 18.3865 15.2372C18.4382 15.215 18.485 15.1827 18.5241 15.1422L21.9689 11.6974L22.6364 11.9835C23.1526 12.2047 23.7146 12.298 24.2746 12.2554C24.8345 12.2128 25.376 12.0357 25.8528 11.739C26.3296 11.4423 26.7277 11.0349 27.0133 10.5513C27.2989 10.0677 27.4635 9.52238 27.4931 8.96157L27.6232 6.49236C27.6328 6.30831 27.5864 6.12568 27.4901 5.96855C27.3938 5.81141 27.2521 5.68715 27.0837 5.61216C26.9154 5.53716 26.7283 5.51495 26.547 5.54846C26.3658 5.58196 26.199 5.6696 26.0686 5.79983L23.9698 7.89819L22.7712 6.69961L24.8696 4.60125C25 4.47081 25.0878 4.30388 25.1214 4.12249C25.155 3.94109 25.1327 3.75379 25.0576 3.58531C24.9825 3.41682 24.858 3.2751 24.7006 3.17885C24.5433 3.0826 24.3604 3.03636 24.1762 3.04623L21.707 3.17634C21.1461 3.20585 20.6007 3.37037 20.1171 3.65592C19.6335 3.94148 19.226 4.33961 18.9293 4.81646C18.6326 5.29331 18.4555 5.83477 18.4129 6.39478C18.3704 6.9548 18.4638 7.51679 18.6851 8.03297L18.9716 8.7005Z" fill="#98E342"/>
<path d="M14.5342 17.9336L10.1845 22.2837C10.1247 22.3436 10.0842 22.42 10.0681 22.5031C10.0521 22.5862 10.0614 22.6722 10.0946 22.75L10.4935 23.6824C10.6609 24.0732 10.7315 24.4987 10.6993 24.9227C10.667 25.3466 10.5328 25.7565 10.308 26.1175C10.0833 26.4784 9.77475 26.7798 9.40856 26.9959C9.04237 27.212 8.62941 27.3364 8.20479 27.3586L5.73515 27.4888C5.72209 27.4909 5.70869 27.4883 5.6974 27.4813C5.68611 27.4744 5.6777 27.4637 5.6737 27.451C5.66742 27.4395 5.6653 27.4261 5.66769 27.4131C5.67008 27.4002 5.67684 27.3884 5.68684 27.3798L8.08485 24.9818C8.1643 24.9023 8.20894 24.7946 8.20894 24.6822C8.20894 24.5698 8.1643 24.462 8.08485 24.3825L6.28698 22.5847C6.2075 22.5052 6.09972 22.4606 5.98733 22.4606C5.87495 22.4606 5.76717 22.5052 5.68769 22.5847L3.29052 24.9814C3.28135 24.9903 3.26973 24.9962 3.25715 24.9985C3.24457 25.0007 3.23161 24.9991 3.21994 24.9939C3.20827 24.9887 3.19843 24.9801 3.19167 24.9693C3.18491 24.9585 3.18155 24.9458 3.18203 24.9331L3.31172 22.4634C3.33926 21.9605 3.50968 21.4758 3.80298 21.0663C4.09627 20.6568 4.50029 20.3394 4.96761 20.1515C5.28923 20.0216 5.63344 19.9569 5.98026 19.9611C6.32708 19.9654 6.66962 20.0384 6.98799 20.1761L7.9204 20.5749C7.9982 20.6082 8.08418 20.6174 8.16727 20.6014C8.25036 20.5853 8.32675 20.5448 8.38661 20.485L12.7359 16.1353C12.7764 16.0962 12.8087 16.0494 12.8309 15.9977C12.8531 15.946 12.8648 15.8904 12.8653 15.8341C12.8658 15.7778 12.8551 15.722 12.8337 15.67C12.8124 15.6179 12.781 15.5705 12.7412 15.5308C12.7014 15.491 12.6541 15.4595 12.602 15.4382C12.5499 15.4169 12.4941 15.4061 12.4378 15.4066C12.3815 15.4071 12.3259 15.4188 12.2742 15.441C12.2225 15.4632 12.1757 15.4955 12.1366 15.536L7.98949 19.6831L7.32196 19.3971C6.80578 19.1759 6.2438 19.0826 5.68383 19.1251C5.12386 19.1677 4.58244 19.3448 4.10562 19.6415C3.6288 19.9382 3.23067 20.3457 2.9451 20.8292C2.65952 21.3128 2.49493 21.8581 2.46533 22.4189L2.33522 24.8873C2.32563 25.0714 2.37204 25.254 2.46835 25.4111C2.56465 25.5683 2.70631 25.6925 2.87466 25.7675C3.04301 25.8425 3.23014 25.8647 3.41136 25.8312C3.59259 25.7977 3.75941 25.7101 3.88981 25.5798L5.9886 23.4815L7.18718 24.6801L5.08882 26.7793C4.96142 26.9067 4.87463 27.069 4.8394 27.2456C4.80417 27.4223 4.82208 27.6055 4.89087 27.772C4.95966 27.9385 5.07625 28.0809 5.22591 28.1812C5.37557 28.2815 5.5516 28.3352 5.73176 28.3356H5.78135L8.25056 28.2054C8.81141 28.1759 9.35684 28.0114 9.84045 27.7259C10.3241 27.4403 10.7315 27.0422 11.0283 26.5653C11.325 26.0885 11.5021 25.547 11.5446 24.987C11.5871 24.427 11.4938 23.865 11.2724 23.3488L10.9868 22.6813L15.1335 18.5342C15.2107 18.4542 15.2534 18.3472 15.2525 18.236C15.2515 18.1249 15.2069 18.0186 15.1283 17.94C15.0498 17.8614 14.9435 17.8169 14.8323 17.8159C14.7212 17.8149 14.6141 17.8577 14.5342 17.9349V17.9336Z" fill="#98E342"/>
<path d="M28.0531 24.9835L21.5261 18.4566C21.4017 18.3327 21.2493 18.2406 21.0817 18.1882C20.9142 18.1358 20.7364 18.1247 20.5636 18.1557L12.3732 10.5959L11.5836 7.17348C11.5353 6.96434 11.5402 6.74642 11.5978 6.53965C11.6554 6.33288 11.764 6.14386 11.9135 5.98986C12.063 5.83586 12.2488 5.7218 12.4538 5.6581C12.6587 5.59441 12.8764 5.58311 13.0869 5.62524L15.1535 6.0389C15.23 6.05423 15.3092 6.04815 15.3825 6.02133C15.4557 5.99451 15.5201 5.948 15.5687 5.8869C15.6172 5.82581 15.6479 5.75252 15.6574 5.67509C15.6669 5.59767 15.6549 5.51911 15.6227 5.44808L15.5722 5.33492C15.2919 4.73962 14.8709 4.22147 14.3456 3.82518C13.8203 3.42889 13.2065 3.16636 12.5571 3.06025C11.8985 2.94724 11.2223 2.99367 10.5853 3.19564C9.94827 3.39761 9.3689 3.74924 8.89568 4.22111L6.27643 6.84035C6.09989 7.01612 5.95993 7.22512 5.86464 7.45529C5.76934 7.68546 5.72059 7.93223 5.72122 8.18134C5.72122 8.51001 5.59065 8.82523 5.35825 9.05764C5.12584 9.29004 4.81063 9.42061 4.48195 9.42061C4.23279 9.41992 3.98597 9.46868 3.75578 9.56406C3.5256 9.65943 3.31662 9.79953 3.14096 9.97624L2.92269 10.1941L1.62409 11.4944C1.54464 11.5739 1.5 11.6817 1.5 11.794C1.5 11.9064 1.54464 12.0142 1.62409 12.0937L5.19568 15.6657C5.23504 15.7051 5.28178 15.7364 5.33323 15.7577C5.38468 15.779 5.43984 15.79 5.49553 15.79C5.55123 15.79 5.60638 15.779 5.65783 15.7577C5.70928 15.7364 5.75603 15.7051 5.79539 15.6657L7.09315 14.3675L7.19402 14.2666C7.40849 14.0534 7.57847 13.7997 7.69409 13.5203C7.8097 13.2408 7.86863 12.9411 7.86748 12.6387C7.86749 12.5 7.90194 12.3634 7.96773 12.2412C8.03352 12.119 8.12859 12.015 8.24444 11.9386C8.36028 11.8622 8.49327 11.8158 8.63148 11.8034C8.7697 11.791 8.90882 11.8132 9.03639 11.8678L10.4401 12.4696L18.0304 20.6914C18.0186 20.7545 18.0124 20.8184 18.0118 20.8826C18.0114 21.0258 18.0394 21.1677 18.0943 21.3001C18.1491 21.4324 18.2297 21.5525 18.3313 21.6535L24.8583 28.1804C24.9594 28.282 25.0797 28.3626 25.2122 28.4174C25.3446 28.4723 25.4867 28.5003 25.63 28.5C25.7733 28.5003 25.9152 28.4723 26.0475 28.4174C26.1798 28.3626 26.3 28.282 26.401 28.1804L28.0539 26.5275C28.1552 26.4263 28.2356 26.3061 28.2905 26.1737C28.3453 26.0414 28.3735 25.8996 28.3735 25.7564C28.3735 25.6131 28.3453 25.4713 28.2905 25.339C28.2356 25.2067 28.1552 25.0864 28.0539 24.9852L28.0531 24.9835ZM5.49574 14.7646L2.52303 11.7911L3.22234 11.0913L6.19506 14.064L5.49574 14.7646ZM7.51401 11.4478C7.35702 11.6038 7.23251 11.7894 7.14769 11.9938C7.06287 12.1982 7.01941 12.4174 7.01982 12.6387C7.02025 12.9255 6.93511 13.2059 6.77528 13.444L3.82629 10.498C4.01203 10.3484 4.24349 10.2672 4.48195 10.2678C5.0354 10.2677 5.56615 10.0478 5.9575 9.65647C6.34885 9.26512 6.56876 8.73437 6.56887 8.18092C6.56849 8.04311 6.59545 7.90659 6.64819 7.77928C6.70094 7.65197 6.77842 7.53638 6.87615 7.43922L9.49539 4.8204C9.8703 4.44125 10.3318 4.15893 10.84 3.99775C11.3483 3.83658 11.8881 3.80138 12.413 3.89518C13.1795 4.02134 13.8748 4.41984 14.3711 5.01748L13.2535 4.79412C12.9041 4.72426 12.5428 4.74306 12.2026 4.84878C11.8624 4.95451 11.5541 5.1438 11.3058 5.39936C11.0576 5.65493 10.8774 5.96861 10.7816 6.31177C10.6858 6.65492 10.6776 7.01661 10.7575 7.36378L11.5238 10.6845L10.594 11.6169L9.37079 11.0922C9.0614 10.958 8.71876 10.9202 8.38755 10.9836C8.05634 11.047 7.75193 11.2088 7.51401 11.4478V11.4478ZM12.0015 11.4054L19.8202 18.6236L18.4966 19.9476L11.2784 12.1301L12.0015 11.4054ZM27.4538 25.9257L25.8008 27.5786C25.7546 27.6227 25.6931 27.6473 25.6292 27.6473C25.5653 27.6473 25.5038 27.6227 25.4575 27.5786L18.9306 21.0517C18.908 21.0292 18.8901 21.0024 18.8779 20.9729C18.8657 20.9435 18.8594 20.9119 18.8594 20.88C18.8594 20.8481 18.8657 20.8166 18.8779 20.7871C18.8901 20.7576 18.908 20.7309 18.9306 20.7084L20.5835 19.0533C20.6061 19.0307 20.6329 19.0128 20.6624 19.0006C20.6919 18.9884 20.7235 18.9821 20.7554 18.9821C20.7873 18.9821 20.8189 18.9884 20.8484 19.0006C20.8779 19.0128 20.9047 19.0307 20.9273 19.0533L27.4542 25.5803C27.4768 25.6028 27.4947 25.6296 27.5069 25.6591C27.5192 25.6886 27.5255 25.7202 27.5255 25.7521C27.5255 25.784 27.5192 25.8157 27.5069 25.8451C27.4947 25.8746 27.4768 25.9014 27.4542 25.924L27.4538 25.9257Z" fill="#98E342"/>
</svg>
