<svg width="44" height="44" viewBox="0 0 44 44" fill="none" xmlns="http://www.w3.org/2000/svg">
<rect width="43.9651" height="44" fill="#98E342"/>
<path d="M28.9501 24.8672C28.4588 24.3556 27.8661 24.082 27.238 24.082C26.615 24.082 26.0173 24.3505 25.5057 24.8621L23.905 26.4577C23.7733 26.3868 23.6416 26.3209 23.515 26.2551C23.3326 26.1639 23.1604 26.0778 23.0135 25.9866C21.5142 25.0343 20.1516 23.7933 18.8447 22.1876C18.2115 21.3872 17.786 20.7136 17.4771 20.0297C17.8924 19.6498 18.2774 19.2547 18.6522 18.8748C18.7941 18.733 18.9359 18.5861 19.0777 18.4443C20.1414 17.3805 20.1414 16.0028 19.0777 14.939L17.6949 13.5562C17.5378 13.3992 17.3758 13.2371 17.2238 13.075C16.9199 12.7609 16.6008 12.4367 16.2715 12.1328C15.7802 11.6465 15.1926 11.3882 14.5746 11.3882C13.9566 11.3882 13.3589 11.6465 12.8524 12.1328C12.8473 12.1379 12.8473 12.1379 12.8423 12.143L11.12 13.8804C10.4717 14.5287 10.1019 15.3189 10.0208 16.2358C9.89927 17.7149 10.3349 19.0926 10.6692 19.9943C11.4898 22.2078 12.7156 24.2593 14.5442 26.4577C16.7628 29.1069 19.4323 31.1989 22.4816 32.6729C23.6467 33.225 25.2017 33.8784 26.9392 33.9899C27.0455 33.9949 27.157 34 27.2583 34C28.4284 34 29.4111 33.5796 30.181 32.7438C30.1861 32.7337 30.1962 32.7286 30.2013 32.7185C30.4647 32.3994 30.7686 32.1106 31.0877 31.8016C31.3055 31.594 31.5284 31.3762 31.7462 31.1482C32.2477 30.6265 32.5111 30.0186 32.5111 29.3956C32.5111 28.7675 32.2426 28.1647 31.731 27.6582L28.9501 24.8672ZM30.7635 30.201C30.7585 30.201 30.7585 30.206 30.7635 30.201C30.566 30.4137 30.3634 30.6062 30.1455 30.819C29.8163 31.133 29.482 31.4623 29.1679 31.832C28.6563 32.3791 28.0535 32.6374 27.2633 32.6374C27.1874 32.6374 27.1063 32.6374 27.0303 32.6324C25.5259 32.5361 24.1279 31.9485 23.0794 31.4471C20.2124 30.0592 17.6949 28.0887 15.6029 25.5915C13.8756 23.5096 12.7207 21.5848 11.9558 19.5181C11.4847 18.2569 11.3125 17.2742 11.3885 16.3472C11.4391 15.7546 11.6671 15.2632 12.0875 14.8428L13.8148 13.1155C14.063 12.8825 14.3264 12.7559 14.5847 12.7559C14.9039 12.7559 15.1622 12.9483 15.3243 13.1104C15.3293 13.1155 15.3344 13.1206 15.3395 13.1256C15.6485 13.4144 15.9423 13.7132 16.2512 14.0323C16.4083 14.1944 16.5704 14.3565 16.7325 14.5237L18.1153 15.9065C18.6522 16.4434 18.6522 16.9399 18.1153 17.4768C17.9684 17.6237 17.8266 17.7706 17.6797 17.9124C17.2542 18.348 16.849 18.7533 16.4083 19.1484C16.3981 19.1585 16.388 19.1636 16.3829 19.1737C15.9473 19.6093 16.0284 20.0348 16.1195 20.3235C16.1246 20.3387 16.1297 20.3539 16.1347 20.3691C16.4944 21.2404 17.0009 22.0609 17.7709 23.0386L17.7759 23.0436C19.174 24.7658 20.648 26.1082 22.274 27.1364C22.4816 27.2681 22.6944 27.3745 22.897 27.4758C23.0794 27.567 23.2516 27.6531 23.3985 27.7443C23.4187 27.7544 23.439 27.7696 23.4593 27.7797C23.6315 27.8659 23.7936 27.9064 23.9607 27.9064C24.3812 27.9064 24.6446 27.643 24.7307 27.5569L26.463 25.8245C26.6352 25.6523 26.9088 25.4446 27.2279 25.4446C27.5419 25.4446 27.8003 25.6422 27.9573 25.8144C27.9624 25.8194 27.9624 25.8194 27.9674 25.8245L30.7585 28.6155C31.2802 29.1322 31.2802 29.6641 30.7635 30.201Z" fill="black"/>
<path d="M22.9535 15.709C24.2806 15.9318 25.4862 16.5599 26.4486 17.5224C27.411 18.4848 28.0341 19.6903 28.262 21.0175C28.3177 21.3518 28.6064 21.5848 28.9357 21.5848C28.9762 21.5848 29.0117 21.5797 29.0522 21.5747C29.427 21.5139 29.6752 21.1593 29.6145 20.7845C29.3409 19.1787 28.5811 17.7148 27.4212 16.5549C26.2612 15.3949 24.7973 14.6351 23.1916 14.3616C22.8167 14.3008 22.4672 14.549 22.4014 14.9188C22.3355 15.2885 22.5787 15.6482 22.9535 15.709Z" fill="black"/>
<path d="M33.9548 20.5869C33.5039 17.9428 32.2579 15.5367 30.3431 13.622C28.4284 11.7073 26.0224 10.4612 23.3783 10.0104C23.0085 9.94458 22.659 10.1978 22.5931 10.5676C22.5323 10.9425 22.7806 11.292 23.1554 11.3578C25.5159 11.758 27.6686 12.8774 29.3807 14.5845C31.0928 16.2965 32.2072 18.4493 32.6074 20.8098C32.6631 21.1441 32.9518 21.3771 33.2811 21.3771C33.3216 21.3771 33.357 21.372 33.3976 21.367C33.7673 21.3113 34.0206 20.9567 33.9548 20.5869Z" fill="black"/>
</svg>
