<svg width="20" height="20" viewBox="0 0 20 20" fill="none" xmlns="http://www.w3.org/2000/svg">
<path d="M10 0C4.47301 0 0 4.4725 0 10C0 15.5269 4.4725 20 10 20C15.527 20 20 15.5275 20 10C20 4.47301 15.5275 0 10 0ZM10 18.6046C5.25539 18.6046 1.39535 14.7446 1.39535 10C1.39535 5.25535 5.25539 1.39535 10 1.39535C14.7446 1.39535 18.6046 5.25535 18.6046 10C18.6046 14.7446 14.7446 18.6046 10 18.6046Z" fill="#98E342"/>
<path d="M9.70328 12.6533C9.15043 12.6533 8.70289 13.114 8.70289 13.6668C8.70289 14.2065 9.13727 14.6804 9.70328 14.6804C10.2693 14.6804 10.7168 14.2065 10.7168 13.6668C10.7168 13.114 10.2561 12.6533 9.70328 12.6533ZM9.87437 4.97925C8.09734 4.97925 7.28125 6.03233 7.28125 6.74311C7.28125 7.25647 7.71563 7.49343 8.07102 7.49343C8.78184 7.49343 8.49227 6.47983 9.83488 6.47983C10.493 6.47983 11.0196 6.76944 11.0196 7.37495C11.0196 8.08573 10.2824 8.49378 9.84805 8.86233C9.46629 9.19136 8.96613 9.73108 8.96613 10.8631C8.96613 11.5476 9.15043 11.745 9.69008 11.745C10.335 11.745 10.4667 11.4555 10.4667 11.2053C10.4667 10.5208 10.4798 10.126 11.2038 9.55995C11.5592 9.28355 12.678 8.38843 12.678 7.15112C12.678 5.91382 11.5592 4.97925 9.87437 4.97925Z" fill="#98E342"/>
</svg>
