<svg width="71" height="71" viewBox="0 0 71 71" fill="none" xmlns="http://www.w3.org/2000/svg">
<path d="M64.45 35.8562L64.5399 35.8123L64.45 35.8562L66.7958 40.655C68.0782 43.2784 67.0624 46.4048 64.4829 47.7733L59.7646 50.2768L59.8064 50.3554L59.7646 50.2768C59.2284 50.5614 58.8604 51.068 58.7554 51.6659L58.8426 51.6812L58.7554 51.6659L57.8325 56.9268C57.328 59.803 54.6695 61.7353 51.7775 61.3262L46.4888 60.5781L46.4887 60.5781C45.8877 60.4937 45.2923 60.6867 44.8559 61.1088L44.9254 61.1806L44.8559 61.1088L41.0168 64.8225L41.0864 64.8944L41.0168 64.8225C39.9675 65.8378 38.6206 66.3451 37.2746 66.3452C35.9282 66.3454 34.5822 65.838 33.5324 64.8225L29.6935 61.1088L29.624 61.1806L29.6935 61.1088C29.2571 60.6868 28.6615 60.4928 28.0606 60.5781C28.0605 60.5781 28.0605 60.5781 28.0605 60.5781L22.7719 61.3262C22.5126 61.3629 22.2546 61.3807 22.0005 61.3807C19.4206 61.381 17.176 59.5453 16.7167 56.9269L15.7939 51.6658L15.7041 51.6815L15.7939 51.6658C15.6889 51.068 15.3209 50.5612 14.7846 50.2768L10.0663 47.7733L10.0214 47.8579L10.0663 47.7733C7.48686 46.4047 6.47106 43.2785 7.75341 40.6551L10.0992 35.8564C10.3658 35.3111 10.3658 34.6849 10.0992 34.1394L10.0093 34.1833L10.0992 34.1394L7.75354 29.3407C6.47118 26.7173 7.48698 23.5909 10.0664 22.2224L14.7847 19.7189L14.7386 19.632L14.7847 19.7189C15.3209 19.4343 15.6889 18.9277 15.7939 18.3298L15.7939 18.3298L16.7167 13.0689C17.2212 10.1927 19.8801 8.26025 22.7718 8.66949L22.7849 8.57696L22.7718 8.66949L28.0604 9.41759L28.0605 9.4176C28.6617 9.50223 29.257 9.3091 29.6934 8.88693L33.5324 5.17283C35.6311 3.14232 38.9182 3.14243 41.017 5.17283L44.8559 8.88656C45.2921 9.30859 45.8874 9.50212 46.4888 9.41723L46.4757 9.32469L46.4888 9.41723L51.7775 8.66912C54.6682 8.26013 57.328 10.1924 57.8325 13.0685L58.7553 18.3296L58.8538 18.3124L58.7553 18.3297C58.8603 18.9274 59.2283 19.4342 59.7646 19.7187L64.4829 22.2222C67.0624 23.5908 68.0782 26.7169 66.7958 29.3403L64.45 34.1391C64.1834 34.6845 64.1834 35.3107 64.45 35.8562ZM35.9154 62.3587L35.9849 62.2868L35.9154 62.3587C36.6774 63.0956 37.8719 63.0957 38.6337 62.3587L42.4727 58.6451C43.6747 57.4825 45.3128 56.9497 46.9688 57.1843L46.9816 57.094L46.9688 57.1843L52.2575 57.9324C53.3075 58.0806 54.2736 57.3787 54.4567 56.3345L55.3795 51.0735C55.6684 49.4264 56.681 48.0328 58.1581 47.2489L62.8764 44.7454C63.813 44.2485 64.1821 43.1125 63.7164 42.1598L61.3706 37.3611C60.6363 35.8588 60.6363 34.1361 61.3706 32.6338L63.7164 27.8352C64.1819 26.8827 63.8128 25.7468 62.8763 25.2499L58.158 22.7464L58.1111 22.8348L58.158 22.7464C56.6808 21.9628 55.6682 20.5691 55.3792 18.922L54.4565 13.6608C54.2733 12.6166 53.3065 11.9145 52.2573 12.063L46.9686 12.8111L46.9826 12.9101L46.9686 12.8111C45.3129 13.0454 43.6744 12.513 42.4725 11.3502L38.6336 7.63651L38.6336 7.6365C37.8715 6.89956 36.6771 6.89954 35.9153 7.63651L32.0762 11.3502C30.8743 12.5129 29.2356 13.0454 27.5801 12.8111L27.5662 12.9095L27.5801 12.8111L22.2915 12.063L22.2914 12.063C21.2414 11.9146 20.2755 12.6166 20.0923 13.6608L20.0923 13.6608L19.1695 18.9218C18.8806 20.569 17.8679 21.9625 16.3909 22.7464L11.6725 25.2499C10.736 25.7468 10.3669 26.8827 10.8325 27.8352L13.1782 32.634C13.9125 34.1364 13.9125 35.8588 13.1782 37.3612L10.8325 42.16L10.8945 42.1904L10.8325 42.16C10.3669 43.1125 10.736 44.2484 11.6725 44.7453L16.3909 47.2488L16.4377 47.1604L16.3909 47.2488C17.868 48.0324 18.8806 49.4261 19.1696 51.0732L20.0925 56.3344C20.2758 57.3786 21.2426 58.0806 22.2917 57.9322L27.5804 57.1841L27.5671 57.0905L27.5804 57.1841C27.8369 57.1478 28.093 57.13 28.347 57.13C29.733 57.13 31.0605 57.6622 32.0765 58.645L35.9154 62.3587Z" fill="#98E342" stroke="white" stroke-width="0.2"/>
<path d="M26.5166 48.1797L26.5166 48.1797C26.1821 48.5145 25.7436 48.6817 25.3049 48.6817C24.8662 48.6817 24.4278 48.5143 24.0931 48.1797C23.4239 47.5104 23.4239 46.4253 24.0931 45.7561L48.0335 21.8156C48.7027 21.1464 49.788 21.1464 50.4571 21.8156L50.5278 21.7449L50.4571 21.8156C51.1265 22.485 51.1265 23.57 50.457 24.2394L50.5224 24.3047L50.457 24.2394L26.5166 48.1797Z" fill="#98E342" stroke="white" stroke-width="0.2"/>
<path d="M23.4687 25.3244C23.4687 21.7126 26.4073 18.7739 30.0192 18.7739C33.631 18.7739 36.5697 21.7126 36.5697 25.3244C36.5697 28.9362 33.631 31.8749 30.0192 31.8749C26.4073 31.8749 23.4687 28.9362 23.4687 25.3244ZM26.8963 25.3243C26.8963 27.0465 28.2971 28.4473 30.0192 28.4473C31.7412 28.4473 33.1421 27.0465 33.1422 25.3243C33.1422 23.6022 31.7412 22.2014 30.0192 22.2014C28.2971 22.2014 26.8963 23.6022 26.8963 25.3243Z" fill="#98E342" stroke="white" stroke-width="0.2"/>
<path d="M37.9789 44.6711C37.9789 41.0593 40.9176 38.1206 44.5294 38.1206C48.1413 38.1206 51.08 41.0593 51.08 44.6711C51.08 48.2829 48.1413 51.2216 44.5294 51.2216C40.9176 51.2216 37.9789 48.2829 37.9789 44.6711ZM41.4064 44.6711C41.4064 46.3932 42.8074 47.794 44.5294 47.794C46.2515 47.794 47.6523 46.3932 47.6523 44.6711C47.6523 42.949 46.2515 41.5482 44.5294 41.5482C42.8072 41.5482 41.4064 42.949 41.4064 44.6711Z" fill="#98E342" stroke="white" stroke-width="0.2"/>
</svg>
