<svg width="70" height="70" viewBox="0 0 70 70" fill="none" xmlns="http://www.w3.org/2000/svg">
<path fill-rule="evenodd" clip-rule="evenodd" d="M34.2258 4.59667C34.4576 4.45181 34.7254 4.375 34.9987 4.375C35.272 4.375 35.5398 4.45181 35.7716 4.59667L41.9841 8.47584C45.398 10.61 49.2359 11.9746 53.2308 12.4746L58.5129 13.1367C58.8655 13.1807 59.1899 13.3521 59.4252 13.6184C59.6604 13.8848 59.7903 14.228 59.7904 14.5833V33.4163C59.7904 38.6104 58.4693 43.7193 55.9513 48.2623C53.4334 52.8054 49.8013 56.6333 45.3966 59.3863L35.7716 65.4033C35.5398 65.5482 35.272 65.625 34.9987 65.625C34.7254 65.625 34.4576 65.5482 34.2258 65.4033L24.6008 59.3863C20.1961 56.6333 16.564 52.8054 14.0461 48.2623C11.5281 43.7193 10.207 38.6104 10.207 33.4163V14.5833C10.2071 14.228 10.337 13.8848 10.5722 13.6184C10.8075 13.3521 11.1319 13.1807 11.4845 13.1367L16.7666 12.4746C20.7623 11.9759 24.6012 10.6123 28.0162 8.47875L34.2258 4.59667ZM34.9987 7.55417L29.562 10.9521C25.7878 13.311 21.5447 14.8189 17.1283 15.3708L13.1237 15.8667V33.4163C13.1242 38.1152 14.3197 42.7369 16.5978 46.8468C18.876 50.9566 22.1619 54.4195 26.1466 56.91L34.9987 62.4458L43.8508 56.9129C47.8359 54.4222 51.1221 50.9588 53.4003 46.8484C55.6784 42.738 56.8737 38.1157 56.8737 33.4163V15.8725L52.8691 15.3738C48.4527 14.8218 44.2096 13.3139 40.4354 10.955L34.9987 7.55417Z" fill="#98E342"/>
<path fill-rule="evenodd" clip-rule="evenodd" d="M46.2379 27.2825L34.5712 38.9492C34.2977 39.2226 33.9269 39.3762 33.5402 39.3762C33.1535 39.3762 32.7826 39.2226 32.5091 38.9492L26.6758 33.1159L28.7379 31.0538L33.5387 35.8546L44.1758 25.2175L46.2379 27.2825Z" fill="#98E342"/>
</svg>
