<svg width="70" height="70" viewBox="0 0 70 70" fill="none" xmlns="http://www.w3.org/2000/svg">
<g clip-path="url(#clip0_726_8747)">
<path d="M69.5758 44.9698C68.5152 42.7425 65.9697 41.6819 63.7424 42.9546L47.197 53.7728C46.6667 54.091 46.5606 54.7273 46.8788 55.2576C47.197 55.7879 47.8333 55.894 48.3636 55.5758L64.803 44.7576C65.7576 44.2273 67.0303 44.5455 67.6667 45.8182C68.197 47.091 67.7727 48.6819 66.6061 49.3182C46.8788 62.2576 52.6061 58.6516 39.4545 66.8182C37.8636 67.7728 35.9545 67.9849 34.2576 67.4546L20.0455 62.3637C19.9394 62.3637 19.8333 62.2576 19.6212 62.2576L14.8485 62.5758V42.9546C17.2879 42.3182 24.9242 40.8334 28.3182 45.1819C28.9545 45.9243 29.9091 46.4546 30.9697 46.4546H43.1667C44.3333 46.4546 45.2879 47.6213 45.2879 49.0001C45.2879 50.3788 44.3333 51.5455 43.1667 51.5455H31.5C30.3333 51.5455 29.2727 52.1819 28.6364 53.3485C28 54.5152 28.1061 56.0001 28.8485 57.1667C29.1667 57.697 29.803 57.697 30.3333 57.3788C30.8636 57.0607 30.8636 56.3182 30.5455 55.894C30.2273 55.3637 30.2273 54.7273 30.4394 54.3031C30.5455 54.197 30.8636 53.6667 31.3939 53.6667H43.0606C45.3939 53.6667 47.303 51.5455 47.303 49.0001C47.303 46.4546 45.3939 44.3334 43.0606 44.3334H30.9697C30.7576 44.3334 30.2273 44.2273 29.9091 43.9092C26.0909 38.8182 18.0303 40.091 14.8485 40.7273V38.5001C14.8485 37.8637 14.4242 37.4395 13.7879 37.4395H1.06061C0.424242 37.4395 0 37.8637 0 38.5001V66.1819C0 66.8182 0.424242 67.2425 1.06061 67.2425H13.7879C14.4242 67.2425 14.8485 66.8182 14.8485 66.1819V64.697L19.5152 64.4849L33.5152 69.4698C35.8485 70.3182 38.3939 70.0001 40.6212 68.6213C55.3636 59.2879 46.9849 64.8031 67.7727 51.1213C69.7879 50.0607 70.5303 47.197 69.5758 44.9698ZM12.7273 65.2273H2.12121V39.6667H12.7273V65.2273Z" fill="#98E342"/>
<path d="M3.07564 22.5909L6.25746 23.0152C6.57564 24.3939 7.10594 25.5606 7.84837 26.7273L5.93928 29.2727C5.62109 29.697 5.62109 30.3333 6.04534 30.6515L8.69685 33.303C9.12109 33.7273 9.6514 33.7273 10.0756 33.4091L12.6211 31.5C13.7878 32.2424 15.0605 32.7727 16.3332 33.0909L16.7575 36.2727C16.8635 36.803 17.2878 37.2273 17.8181 37.2273H21.5302C22.0605 37.2273 22.4847 36.803 22.5908 36.2727L23.015 33.0909C23.9696 32.8788 24.9241 32.4545 25.7726 32.0303V38.1818C25.7726 38.8182 26.1969 39.2424 26.8332 39.2424H66.1817C66.8181 39.2424 67.2423 38.8182 67.2423 38.1818V1.06061C67.2423 0.424242 66.8181 0 66.1817 0H26.8332C26.1969 0 25.7726 0.424242 25.7726 1.06061V7.31818C24.9241 6.89394 23.9696 6.57576 23.015 6.25758L22.5908 3.07576C22.4847 2.54545 22.0605 2.12121 21.5302 2.12121H17.8181C17.2878 2.12121 16.8635 2.54545 16.7575 3.07576L16.3332 6.25758C14.9544 6.57576 13.7878 7.10606 12.6211 7.84848L9.96958 5.93939C9.54534 5.62121 9.01503 5.62121 8.59079 5.93939L6.04534 8.59091C5.62109 9.01515 5.62109 9.54545 5.93928 9.9697L7.84837 12.5152C7.10594 13.6818 6.57564 14.9545 6.25746 16.2273L3.07564 16.6515C2.54534 16.7576 2.12109 17.1818 2.12109 17.7121V21.4242C2.22715 22.0606 2.54534 22.4848 3.07564 22.5909ZM27.8938 37.1212V32.2424L29.2726 33.303C29.4847 33.4091 29.6969 33.5152 29.909 33.5152C30.2272 33.5152 30.5453 33.4091 30.7575 33.197L33.3029 30.6515C33.7272 30.2273 33.7272 29.697 33.409 29.2727L31.4999 26.7273C32.2423 25.5606 32.7726 24.2879 33.0908 23.0152L36.2726 22.5909C36.8029 22.4848 37.2272 22.0606 37.2272 21.5303V17.8182C37.2272 17.2879 36.8029 16.8636 36.2726 16.7576L33.0908 16.3333C32.7726 14.9545 32.2423 13.7879 31.4999 12.6212L32.2423 11.6667H39.7726V19.0909C39.7726 19.5152 40.0908 19.9394 40.409 20.0455C40.8332 20.1515 41.2575 20.0455 41.5756 19.7273L46.5605 14.2121L51.5453 19.7273C51.8635 20.0455 52.2878 20.1515 52.712 20.0455C53.1362 19.9394 53.3484 19.5152 53.3484 19.0909V11.6667H65.1211V37.1212H27.8938ZM41.7878 10.6061C41.7878 10.5 41.7878 10.5 41.7878 10.6061V2.12121H51.1211V16.3333L47.1969 11.9848C46.9847 11.7727 46.6665 11.6667 46.4544 11.6667C46.1362 11.6667 45.8181 11.7727 45.712 11.9848L41.7878 16.3333V10.6061ZM65.015 9.43939H53.2423V2.12121H65.015V9.43939ZM39.6666 2.12121V9.54545H33.515C33.515 9.22727 33.409 8.80303 33.1969 8.59091L30.6514 6.04545C30.2272 5.62121 29.6969 5.62121 29.2726 5.93939L27.8938 7V2.12121H39.6666ZM4.34837 18.6667L7.31806 18.2424C7.74231 18.1364 8.16655 17.8182 8.27261 17.3939C8.48473 15.9091 9.12109 14.4242 10.0756 13.1515C10.2878 12.7273 10.2878 12.303 10.0756 11.8788L8.16655 9.43939L9.43928 8.16667L11.7726 9.9697C12.0908 10.2879 12.7272 10.2879 13.0453 9.9697C14.4241 9.12121 15.909 8.48485 17.4999 8.16667C17.9241 8.06061 18.2423 7.74242 18.3484 7.21212L18.7726 4.24242H20.5756L20.9999 7.21212C21.1059 7.63636 21.4241 8.06061 21.8484 8.16667C23.4393 8.48485 24.9241 9.12121 26.1969 9.9697C26.6211 10.2879 27.1514 10.1818 27.4696 9.9697L29.909 8.16667L31.1817 9.43939L29.3787 11.8788C29.0605 12.197 29.0605 12.7273 29.3787 13.1515C30.2272 14.4242 30.8635 15.9091 31.1817 17.5C31.2878 17.9242 31.6059 18.2424 32.1362 18.3485L35.1059 18.7727V20.5758L32.1362 21C31.712 21.1061 31.2878 21.4242 31.1817 21.8485C30.8635 23.4394 30.2272 24.9242 29.3787 26.197C29.1666 26.6212 29.1666 27.0455 29.3787 27.4697L31.1817 29.9091L29.909 31.1818L27.4696 29.3788C27.1514 29.0606 26.6211 29.0606 26.1969 29.3788C24.9241 30.2273 23.4393 30.8636 21.8484 31.1818C21.4241 31.2879 21.1059 31.6061 20.9999 32.1364L20.5756 35H18.7726L18.3484 32.0303C18.2423 31.6061 17.9241 31.1818 17.4999 31.0758C15.909 30.7576 14.4241 30.1212 13.1514 29.2727C12.7272 29.0606 12.3029 29.0606 11.8787 29.2727L9.43928 31.0758L8.16655 29.803L9.96958 27.4697C10.2878 27.1515 10.2878 26.5152 9.96958 26.0909C9.12109 24.8182 8.48473 23.3333 8.27261 21.8485C8.16655 21.4242 7.84837 21.1061 7.31806 21L4.34837 20.5758V18.6667Z" fill="#98E342"/>
<path d="M19.6216 28.1061C24.2882 28.1061 28.1064 24.2879 28.1064 19.6212C28.1064 14.9545 24.2882 11.1364 19.6216 11.1364C14.9549 11.1364 11.1367 14.9545 11.1367 19.6212C11.1367 24.2879 14.9549 28.1061 19.6216 28.1061ZM19.6216 13.2576C23.1216 13.2576 25.9852 16.1212 25.9852 19.6212C25.9852 23.1212 23.1216 25.9848 19.6216 25.9848C16.1216 25.9848 13.2579 23.1212 13.2579 19.6212C13.2579 16.1212 16.1216 13.2576 19.6216 13.2576Z" fill="#98E342"/>
</g>
<defs>
<clipPath id="clip0_726_8747">
<rect width="70" height="70" fill="white"/>
</clipPath>
</defs>
</svg>
