<svg width="44" height="42" viewBox="0 0 44 42" fill="none" xmlns="http://www.w3.org/2000/svg">
<rect width="44" height="40.8281" transform="translate(0 0.571472)" fill="#98E342"/>
<path d="M33.5301 10.9518C33.3402 10.778 33.1074 10.6579 32.8557 10.6038C32.604 10.5497 32.3424 10.5636 32.0979 10.6441L10.9952 17.6004C10.4201 17.79 10.0301 18.3034 10.0017 18.9082C9.97324 19.5131 10.3133 20.0608 10.868 20.3036L16.0869 22.587L17.6615 29.8899C17.7269 30.1933 17.8809 30.4635 18.2071 30.5466C18.537 30.6307 18.7701 30.4503 19.0163 30.266L22.8891 27.3661L27.4168 31.071C27.6805 31.287 28.0028 31.3995 28.3314 31.3995C28.4907 31.3994 28.6488 31.3732 28.7995 31.3219C29.2761 31.1603 29.6293 30.7714 29.7445 30.2816L33.9617 12.3517C34.0205 12.1011 34.0115 11.8393 33.9356 11.5933C33.8598 11.3473 33.7198 11.1259 33.5301 10.9518ZM19.3537 23.8954C19.3511 23.9015 19.3486 23.9084 19.3462 23.9166L18.4732 26.9667L17.4989 22.4482L24.1982 18.726L19.5144 23.6235C19.4409 23.7008 19.386 23.7938 19.3537 23.8954ZM19.6308 28.045L20.0273 26.6596L20.4065 25.3345L21.7655 26.4466L19.6308 28.045ZM32.5895 12.0289L28.3724 29.9588C28.3703 29.9677 28.3675 29.98 28.3469 29.987C28.3264 29.9939 28.3165 29.986 28.3095 29.9802L23.3552 25.926L23.3548 25.9257L21.0594 24.0473L28.4339 16.3364C28.5505 16.2146 28.6194 16.0549 28.6283 15.8865C28.6372 15.7182 28.5855 15.5521 28.4824 15.4187C28.3794 15.2852 28.2319 15.193 28.0667 15.159C27.9015 15.125 27.7296 15.1514 27.5822 15.2333L16.6626 21.3003L11.4331 19.0122C11.4171 19.0052 11.4084 19.0013 11.4096 18.9744C11.4109 18.9475 11.42 18.9445 11.4365 18.939L32.5391 11.9828C32.5494 11.9794 32.5609 11.9756 32.5779 11.9911C32.5948 12.0066 32.592 12.0184 32.5895 12.0289Z" fill="black"/>
</svg>
