<svg width="44" height="41" viewBox="0 0 44 41" fill="none" xmlns="http://www.w3.org/2000/svg">
<rect width="44" height="40.5715" fill="#98E342"/>
<path d="M22.145 27.5714C25.617 27.5714 24.379 25.3734 24.647 24.7414C24.643 24.2694 24.639 23.8154 24.655 23.5394C24.875 23.6014 25.394 23.8644 26.466 24.9064C28.121 26.5764 28.544 27.5714 29.881 27.5714H32.342C33.122 27.5714 33.528 27.2484 33.731 26.9774C33.927 26.7154 34.119 26.2554 33.909 25.5394C33.36 23.8154 30.158 20.8384 29.959 20.5244C29.9912 20.4648 30.0256 20.4064 30.062 20.3494H30.06C30.692 19.5144 33.104 15.9004 33.459 14.4544C33.4602 14.4519 33.4609 14.4491 33.461 14.4464C33.653 13.7864 33.477 13.3584 33.295 13.1164C33.021 12.7544 32.585 12.5714 31.996 12.5714H29.535C28.711 12.5714 28.086 12.9864 27.77 13.7434C27.241 15.0884 25.755 17.8544 24.641 18.8334C24.6162 17.7558 24.6185 16.6778 24.648 15.6004C24.684 14.0654 24.8 12.5714 23.207 12.5714H19.339C18.341 12.5714 17.386 13.6614 18.42 14.9554C19.324 16.0894 18.745 16.7214 18.94 19.8674C18.18 19.0524 16.828 16.8514 15.872 14.0384C15.604 13.2774 15.198 12.5724 14.055 12.5724H11.594C10.596 12.5724 10 13.1164 10 14.0274C10 16.0734 14.529 27.5714 22.145 27.5714ZM14.055 14.0724C14.272 14.0724 14.294 14.0724 14.455 14.5294C15.434 17.4124 17.63 21.6784 19.234 21.6784C20.439 21.6784 20.439 20.4434 20.439 19.9784L20.438 16.2764C20.372 15.0514 19.926 14.4414 19.633 14.0714L23.141 14.0754C23.143 14.0924 23.121 18.1704 23.151 19.1584C23.151 20.5614 24.265 21.3654 26.004 19.6054C27.839 17.5344 29.108 14.4384 29.159 14.3124C29.234 14.1324 29.299 14.0714 29.535 14.0714H32.006L32.004 14.0804C31.779 15.1304 29.558 18.4764 28.815 19.5154L28.781 19.5654C28.454 20.0994 28.188 20.6894 28.826 21.5194C28.884 21.5894 29.036 21.7534 29.256 21.9814C29.94 22.6874 32.286 25.1014 32.494 26.0614C32.356 26.0834 32.206 26.0674 29.881 26.0724C29.386 26.0724 28.999 25.3324 27.522 23.8424C26.194 22.5504 25.332 22.0224 24.547 22.0224C23.023 22.0224 23.134 23.2594 23.148 24.7554C23.153 26.3774 23.143 25.8644 23.154 25.9664C23.065 26.0014 22.81 26.0714 22.145 26.0714C15.8 26.0714 11.668 16.0004 11.509 14.0754C11.564 14.0704 12.321 14.0734 14.055 14.0724Z" fill="black"/>
</svg>
