<svg width="71" height="71" viewBox="0 0 71 71" fill="none" xmlns="http://www.w3.org/2000/svg">
<path d="M67.4355 12.5885C67.3974 12.1732 66.9457 11.8876 66.682 11.8332L43.1218 7.11834C42.8137 7.05646 42.4949 7.15311 42.2731 7.37577L7.3698 42.2725C7.20148 42.444 7.10506 42.6734 7.10011 42.9137V42.926V48.5904C7.09999 49.0386 7.41542 49.425 7.85449 49.5145L12.4128 50.4264L7.3764 55.4675C7.33185 55.5201 7.09822 55.7816 7.10011 56.1342V61.7921C7.09999 62.2402 7.41542 62.6266 7.85449 62.7162L31.4289 67.4311C31.4909 67.4442 31.5541 67.4505 31.6175 67.4499C31.8676 67.4499 32.1074 67.3505 32.2842 67.1736L67.1743 32.2835C67.3511 32.1067 67.4506 31.867 67.4506 31.6169V25.959C67.4507 25.5108 67.1352 25.1245 66.6962 25.0349L62.1378 24.1221L67.178 19.0819C67.3535 18.9045 67.4515 18.6647 67.4506 18.4152V12.7404C67.4498 12.6894 67.4448 12.6386 67.4355 12.5885V12.5885ZM31.3072 59.826L29.0139 59.3668C29.6025 57.5604 30.4136 55.8344 31.4289 54.2285C31.4909 54.2419 31.5541 54.2485 31.6175 54.2483C31.7418 54.2482 31.865 54.2232 31.9796 54.1747C32.0937 54.1283 32.1973 54.0593 32.2842 53.972L48.3081 37.9489C47.5354 40.0195 47.0165 42.1761 46.7626 44.3715L31.3072 59.826ZM29.4552 53.8343C28.4936 55.4608 27.7215 57.1921 27.1534 58.9943L18.6516 57.2969C19.1516 55.5043 19.7877 53.7525 20.5545 52.0568L29.4552 53.8343ZM31.3072 46.6243L29.8409 46.3273C32.3308 35.0011 37.8688 24.5707 45.8564 16.1634L51.106 10.6385L55.0976 11.4372L50.0385 16.2011C43.7527 22.1059 39.8876 30.1372 39.1943 38.7335L31.3072 46.6243ZM48.9173 10.2009L44.4853 14.8639C36.2536 23.5307 30.5498 34.2844 27.9917 45.9605L18.9477 44.1518C25.0453 33.4032 32.5623 23.5245 41.2962 14.7819L46.3835 9.69455L48.9173 10.2009ZM51.3313 17.5741L57.3664 11.8917L64.5914 13.3363L41.348 36.5835C42.4531 29.3079 45.9686 22.6138 51.3313 17.5741ZM43.2434 9.06559L44.1638 9.25418L39.9656 13.4485C30.9613 22.457 23.2328 32.656 16.9957 43.7614L9.95544 42.3536L43.2434 9.06559ZM8.98606 44.083L30.6745 48.4207V52.1549L8.98606 47.8172V44.083ZM18.6591 51.6749C17.9133 53.3774 17.2913 55.1315 16.7977 56.9235L9.95544 55.5552L14.6439 50.8715L18.6591 51.6749ZM8.98606 57.2847L30.6745 61.6223V65.3565L8.98606 61.0188V57.2847ZM65.5646 31.2265L32.5605 64.2306V61.2395L65.5646 28.2353V31.2265ZM64.5952 26.538L49.0625 42.0679C49.8319 38.0015 51.851 34.2765 54.8383 31.4122L60.5282 25.7223L64.5952 26.538ZM65.5646 18.0248L32.5605 51.029V48.0378L65.5646 15.0337V18.0248Z" fill="#98E342"/>
</svg>
