<svg width="20" height="12" viewBox="0 0 20 12" fill="none" xmlns="http://www.w3.org/2000/svg">
<path d="M18.9122 1.53455C19.0392 1.10146 18.9122 0.782715 18.3016 0.782715H16.2812C15.7666 0.782715 15.53 1.05642 15.403 1.36132C15.403 1.36132 14.3739 3.89399 12.9195 5.53625C12.4495 6.01091 12.2334 6.16335 11.9762 6.16335C11.8492 6.16335 11.6537 6.01091 11.6537 5.57782V1.53455C11.6537 1.01485 11.5096 0.782715 11.0843 0.782715H7.90781C7.58536 0.782715 7.39327 1.02524 7.39327 1.25045C7.39327 1.74243 8.12049 1.85676 8.19596 3.24263V6.24997C8.19596 6.90826 8.07933 7.02952 7.82205 7.02952C7.13599 7.02952 5.46886 4.48645 4.48094 1.57613C4.28198 1.01138 4.08645 0.782715 3.56847 0.782715H1.54802C0.971733 0.782715 0.855103 1.05642 0.855103 1.36132C0.855103 1.9018 1.54116 4.58693 4.04872 8.13475C5.71928 10.5566 8.07247 11.8697 10.213 11.8697C11.4993 11.8697 11.6571 11.5786 11.6571 11.0763C11.6571 8.76186 11.5405 8.54358 12.1854 8.54358C12.4838 8.54358 12.9984 8.69603 14.199 9.86363C15.5711 11.2495 15.7975 11.8697 16.5659 11.8697H18.5864C19.1626 11.8697 19.4542 11.5786 19.2861 11.0035C18.9019 9.79433 16.3052 7.3067 16.1886 7.14039C15.8901 6.75235 15.9759 6.57911 16.1886 6.23265C16.192 6.22918 18.6584 2.72293 18.9122 1.53455Z" fill="#98E342"/>
</svg>
